<svg width="60" height="60" viewBox="0 0 60 60" fill="none" xmlns="http://www.w3.org/2000/svg">
<path d="M1.16622 8.2362C1.48825 4.4605 4.46051 1.48825 8.2362 1.16622C14.237 0.654421 23.2329 0 30 0C36.7671 0 45.763 0.654422 51.7638 1.16622C55.5395 1.48825 58.5117 4.46051 58.8338 8.2362C59.3456 14.237 60 23.2329 60 30C60 36.7671 59.3456 45.763 58.8338 51.7638C58.5117 55.5395 55.5395 58.5117 51.7638 58.8338C45.763 59.3456 36.7671 60 30 60C23.2329 60 14.237 59.3456 8.2362 58.8338C4.4605 58.5117 1.48825 55.5395 1.16622 51.7638C0.654421 45.763 0 36.7671 0 30C0 23.2329 0.654422 14.237 1.16622 8.2362Z" fill="#2F3137"/>
<path d="M41.0361 23.0769C41.2957 25.7019 40.351 27.5625 38.2019 28.6587C39.8894 29.0625 41.1515 29.8053 41.988 30.887C42.8245 31.9688 43.1491 33.512 42.9616 35.5168C42.8606 36.5409 42.6262 37.4423 42.2584 38.2212C41.8906 39 41.4255 39.6418 40.863 40.1466C40.3005 40.6514 39.601 41.0733 38.7644 41.4123C37.9279 41.7512 37.0517 42 36.1358 42.1587C35.22 42.3173 34.1707 42.4255 32.988 42.4832V48H29.6563V42.5697C28.5024 42.5697 27.6226 42.5625 27.0168 42.5481V48H23.6851V42.4832C23.4255 42.4832 23.0361 42.4796 22.5168 42.4724C21.9976 42.4651 21.601 42.4615 21.3269 42.4615H17L17.6707 38.5024H20.0721C20.7933 38.5024 21.2115 38.1346 21.3269 37.399V28.7019H21.6731C21.5865 28.6875 21.4712 28.6803 21.3269 28.6803V22.4712C21.1394 21.4904 20.4976 21 19.4014 21H17V17.4519L21.5865 17.4736C22.5096 17.4736 23.2091 17.4663 23.6851 17.4519V12H27.0168V17.3438C28.1995 17.3149 29.0793 17.3005 29.6563 17.3005V12H32.988V17.4519C34.1274 17.5529 35.137 17.7151 36.0168 17.9387C36.8966 18.1623 37.7115 18.4868 38.4616 18.9123C39.2116 19.3377 39.8065 19.9002 40.2464 20.5998C40.6863 21.2993 40.9495 22.125 41.0361 23.0769ZM36.3846 34.8678C36.3846 34.3486 36.2765 33.887 36.0601 33.4832C35.8438 33.0793 35.5769 32.7476 35.2596 32.488C34.9423 32.2284 34.5277 32.0084 34.0156 31.8281C33.5036 31.6478 33.0313 31.5144 32.5986 31.4279C32.1659 31.3413 31.6322 31.2764 30.9976 31.2332C30.363 31.1899 29.8654 31.1683 29.5048 31.1683C29.1442 31.1683 28.6791 31.1755 28.1094 31.1899C27.5397 31.2043 27.1971 31.2115 27.0817 31.2115V38.524C27.1971 38.524 27.4639 38.5276 27.8822 38.5349C28.3005 38.5421 28.6466 38.5457 28.9207 38.5457C29.1947 38.5457 29.5769 38.5349 30.0673 38.5132C30.5577 38.4916 30.9796 38.4627 31.3329 38.4267C31.6863 38.3906 32.0974 38.3293 32.5661 38.2428C33.0349 38.1563 33.4351 38.0553 33.7668 37.9399C34.0986 37.8245 34.4411 37.6731 34.7945 37.4856C35.1478 37.2981 35.4327 37.0817 35.649 36.8365C35.8654 36.5913 36.0421 36.3029 36.1791 35.9712C36.3161 35.6394 36.3846 35.2716 36.3846 34.8678ZM34.8486 24.5697C34.8486 24.0938 34.7584 23.6719 34.5781 23.3041C34.3978 22.9363 34.1779 22.6334 33.9183 22.3954C33.6587 22.1575 33.3125 21.9555 32.8798 21.7897C32.4471 21.6238 32.0505 21.5048 31.6899 21.4327C31.3293 21.3606 30.8858 21.3029 30.3594 21.2596C29.8329 21.2163 29.4147 21.1983 29.1046 21.2055C28.7945 21.2127 28.4051 21.22 27.9363 21.2272C27.4676 21.2344 27.1827 21.238 27.0817 21.238V27.8798C27.1539 27.8798 27.4026 27.8834 27.8281 27.8906C28.2536 27.8978 28.5889 27.8978 28.8341 27.8906C29.0793 27.8834 29.4399 27.869 29.9159 27.8474C30.3918 27.8257 30.7885 27.7861 31.1058 27.7284C31.4231 27.6707 31.7945 27.5913 32.22 27.4904C32.6454 27.3894 32.9952 27.256 33.2692 27.0901C33.5433 26.9243 33.8101 26.7296 34.0697 26.506C34.3293 26.2825 34.524 26.0048 34.6539 25.6731C34.7837 25.3413 34.8486 24.9736 34.8486 24.5697Z" fill="#F2F2F3"/>
</svg>
