<svg width="60" height="60" viewBox="0 0 60 60" fill="none" xmlns="http://www.w3.org/2000/svg">
<path d="M1.16622 8.2362C1.48825 4.4605 4.46051 1.48825 8.2362 1.16622C14.237 0.654421 23.2329 0 30 0C36.7671 0 45.7631 0.654422 51.7638 1.16622C55.5395 1.48825 58.5117 4.46051 58.8338 8.2362C59.3456 14.237 60 23.2329 60 30C60 36.7671 59.3456 45.7631 58.8338 51.7638C58.5117 55.5395 55.5395 58.5117 51.7638 58.8338C45.7631 59.3456 36.7671 60 30 60C23.2329 60 14.237 59.3456 8.2362 58.8338C4.4605 58.5117 1.48825 55.5395 1.16622 51.7638C0.654421 45.7631 0 36.7671 0 30C0 23.2329 0.654422 14.237 1.16622 8.2362Z" fill="#2F3137"/>
<path d="M28.0961 40.4494L30.2316 32.3962L35.3002 30.5437L36.5609 25.8096L36.5094 25.7067L31.518 27.5334L35.1201 14H24.9314L20.223 31.6501L16.3122 33.0909L15 37.9537L18.9365 36.5386L16.1578 46.9331H43.2762L45 40.4494H28.0961Z" fill="white"/>
</svg>
