<svg width="60" height="60" viewBox="0 0 60 60" fill="none" xmlns="http://www.w3.org/2000/svg">
<path d="M1.16622 8.2362C1.48825 4.4605 4.46051 1.48825 8.2362 1.16622C14.237 0.654421 23.2329 0 30 0C36.7671 0 45.7631 0.654422 51.7638 1.16622C55.5395 1.48825 58.5117 4.46051 58.8338 8.2362C59.3456 14.237 60 23.2329 60 30C60 36.7671 59.3456 45.7631 58.8338 51.7638C58.5117 55.5395 55.5395 58.5117 51.7638 58.8338C45.7631 59.3456 36.7671 60 30 60C23.2329 60 14.237 59.3456 8.2362 58.8338C4.4605 58.5117 1.48825 55.5395 1.16622 51.7638C0.654421 45.7631 0 36.7671 0 30C0 23.2329 0.654422 14.237 1.16622 8.2362Z" fill="#2F3137"/>
<path d="M33.5568 25.0813V20.6903H43.5979V14H16.2558V20.6903H26.298V25.0777C18.1366 25.4526 12 27.0689 12 29.0053C12 30.9416 18.1395 32.5579 26.298 32.9352V47H33.5592V32.934C41.7059 32.5579 47.8301 30.9428 47.8301 29.0082C47.8301 27.0737 41.7059 25.4585 33.5592 25.0825L33.5568 25.0813ZM33.5592 31.7427V31.7391C33.3544 31.7521 32.3018 31.8153 29.9581 31.8153C28.0844 31.8153 26.7662 31.7621 26.3016 31.7379V31.7438C19.0912 31.4245 13.709 30.1688 13.709 28.6664C13.709 27.164 19.0918 25.9101 26.3016 25.5901V30.4929C26.7738 30.5254 28.1245 30.6051 29.9888 30.6051C32.228 30.6051 33.3538 30.5118 33.5604 30.4929V25.5901C40.7566 25.9107 46.1264 27.1675 46.1264 28.6646C46.1264 30.1617 40.7543 31.4192 33.5604 31.7397" fill="white"/>
</svg>
