<svg width="60" height="60" viewBox="0 0 60 60" fill="none" xmlns="http://www.w3.org/2000/svg">
<path d="M1.16622 8.2362C1.48825 4.4605 4.46051 1.48825 8.2362 1.16622C14.237 0.654421 23.2329 0 30 0C36.7671 0 45.7631 0.654422 51.7638 1.16622C55.5395 1.48825 58.5117 4.46051 58.8338 8.2362C59.3456 14.237 60 23.2329 60 30C60 36.7671 59.3456 45.7631 58.8338 51.7638C58.5117 55.5395 55.5395 58.5117 51.7638 58.8338C45.7631 59.3456 36.7671 60 30 60C23.2329 60 14.237 59.3456 8.2362 58.8338C4.4605 58.5117 1.48825 55.5395 1.16622 51.7638C0.654421 45.7631 0 36.7671 0 30C0 23.2329 0.654422 14.237 1.16622 8.2362Z" fill="#2F3137"/>
<path d="M30.0188 11L29.7781 11.8431V36.3084L30.0188 36.556L41.0376 29.8432L30.0188 11Z" fill="white"/>
<path d="M30.0189 11L19 29.8432L30.0189 36.5561V24.6814V11Z" fill="white"/>
<path d="M30.0187 38.7065L29.8831 38.8769V47.592L30.0187 48.0002L41.0442 31.9971L30.0187 38.7065Z" fill="white"/>
<path d="M30.0189 47.9998V38.706L19 31.9966L30.0189 47.9998Z" fill="white"/>
<path d="M30.0188 36.5562L41.0375 29.8435L30.0188 24.6816V36.5562Z" fill="white"/>
<path d="M19 29.843L30.0187 36.5558V24.6812L19 29.843Z" fill="white"/>
</svg>
