<svg width="70" height="102" viewBox="0 0 70 102" fill="none" xmlns="http://www.w3.org/2000/svg">
<g filter="url(#filter0_dif_0_709)">
<path fill-rule="evenodd" clip-rule="evenodd" d="M36.9055 44.9018C39.1707 45.8709 41.4401 46.8418 43.5891 48.0725C51.3187 52.5006 53.3978 62.5596 47.9386 69.433C45.9743 71.918 43.4233 73.5835 40.4258 74.4295C39.1248 74.7996 38.5381 75.5133 38.6018 76.9145C38.6347 77.7987 38.62 78.6884 38.6053 79.5765C38.5972 80.0691 38.5891 80.5613 38.5891 81.0517C38.5891 82.281 37.9896 82.9419 36.8161 82.9684C35.3876 83.008 33.9462 83.008 32.5177 82.9816C31.2549 82.9551 30.6682 82.2149 30.6554 80.946C30.649 80.4436 30.6458 79.938 30.6427 79.4323C30.6395 78.9268 30.6363 78.4212 30.6299 77.919C30.6044 75.6984 30.5406 75.6059 28.4743 75.2622C25.834 74.826 23.2447 74.2048 20.8212 72.9887C18.9207 72.0238 18.7166 71.5347 19.2651 69.4727C19.6733 67.9394 20.0814 66.406 20.5406 64.886C21.0763 63.128 21.5355 62.9033 23.1044 63.7492C25.783 65.19 28.6274 65.9963 31.5993 66.3796C33.5253 66.6308 35.4003 66.4325 37.1733 65.6262C40.4896 64.1193 40.9998 60.1407 38.2064 57.7482C37.2626 56.9287 36.1784 56.3338 35.0432 55.8183C34.1185 55.3938 33.1809 55.0028 32.2439 54.6119C30.2341 53.7736 28.2273 52.9366 26.3569 51.7736C21.9054 49.011 19.0738 45.2174 19.4054 39.5997C19.7753 33.255 23.2447 29.2896 28.8569 27.1747C28.8974 27.1595 28.9371 27.1446 28.9762 27.1299C31.1788 26.3029 31.1914 26.2982 31.2039 23.8305C31.2094 23.4619 31.2078 23.0958 31.2062 22.7311C31.2041 22.2456 31.2021 21.7625 31.2166 21.2794C31.2677 19.3892 31.5738 19.0587 33.385 19.0059C33.7592 18.9971 34.1333 19 34.5075 19.0029C34.6945 19.0044 34.8816 19.0059 35.0687 19.0059C38.9462 19.0059 38.9462 19.0059 38.959 23.011C38.9717 25.8527 38.9718 25.8661 41.7013 26.3023C43.7932 26.6459 45.783 27.2804 47.7217 28.166C48.7804 28.6551 49.1886 29.4218 48.857 30.5849C48.6771 31.2108 48.504 31.8384 48.3309 32.4659C48.0251 33.5744 47.7194 34.6824 47.3774 35.7797C46.8672 37.4055 46.3697 37.6434 44.8646 36.89C41.8416 35.3831 38.6656 34.7487 35.3238 34.9337C34.4564 34.9866 33.6018 35.1055 32.7855 35.4757C29.9029 36.7842 29.4309 40.0888 31.8927 42.1244C33.1427 43.1554 34.5585 43.8956 36.0381 44.5301C36.327 44.6543 36.6162 44.7781 36.9055 44.9018Z" fill="url(#paint0_linear_0_709)"/>
<path fill-rule="evenodd" clip-rule="evenodd" d="M36.9055 44.9018C39.1707 45.8709 41.4401 46.8418 43.5891 48.0725C51.3187 52.5006 53.3978 62.5596 47.9386 69.433C45.9743 71.918 43.4233 73.5835 40.4258 74.4295C39.1248 74.7996 38.5381 75.5133 38.6018 76.9145C38.6347 77.7987 38.62 78.6884 38.6053 79.5765C38.5972 80.0691 38.5891 80.5613 38.5891 81.0517C38.5891 82.281 37.9896 82.9419 36.8161 82.9684C35.3876 83.008 33.9462 83.008 32.5177 82.9816C31.2549 82.9551 30.6682 82.2149 30.6554 80.946C30.649 80.4436 30.6458 79.938 30.6427 79.4323C30.6395 78.9268 30.6363 78.4212 30.6299 77.919C30.6044 75.6984 30.5406 75.6059 28.4743 75.2622C25.834 74.826 23.2447 74.2048 20.8212 72.9887C18.9207 72.0238 18.7166 71.5347 19.2651 69.4727C19.6733 67.9394 20.0814 66.406 20.5406 64.886C21.0763 63.128 21.5355 62.9033 23.1044 63.7492C25.783 65.19 28.6274 65.9963 31.5993 66.3796C33.5253 66.6308 35.4003 66.4325 37.1733 65.6262C40.4896 64.1193 40.9998 60.1407 38.2064 57.7482C37.2626 56.9287 36.1784 56.3338 35.0432 55.8183C34.1185 55.3938 33.1809 55.0028 32.2439 54.6119C30.2341 53.7736 28.2273 52.9366 26.3569 51.7736C21.9054 49.011 19.0738 45.2174 19.4054 39.5997C19.7753 33.255 23.2447 29.2896 28.8569 27.1747C28.8974 27.1595 28.9371 27.1446 28.9762 27.1299C31.1788 26.3029 31.1914 26.2982 31.2039 23.8305C31.2094 23.4619 31.2078 23.0958 31.2062 22.7311C31.2041 22.2456 31.2021 21.7625 31.2166 21.2794C31.2677 19.3892 31.5738 19.0587 33.385 19.0059C33.7592 18.9971 34.1333 19 34.5075 19.0029C34.6945 19.0044 34.8816 19.0059 35.0687 19.0059C38.9462 19.0059 38.9462 19.0059 38.959 23.011C38.9717 25.8527 38.9718 25.8661 41.7013 26.3023C43.7932 26.6459 45.783 27.2804 47.7217 28.166C48.7804 28.6551 49.1886 29.4218 48.857 30.5849C48.6771 31.2108 48.504 31.8384 48.3309 32.4659C48.0251 33.5744 47.7194 34.6824 47.3774 35.7797C46.8672 37.4055 46.3697 37.6434 44.8646 36.89C41.8416 35.3831 38.6656 34.7487 35.3238 34.9337C34.4564 34.9866 33.6018 35.1055 32.7855 35.4757C29.9029 36.7842 29.4309 40.0888 31.8927 42.1244C33.1427 43.1554 34.5585 43.8956 36.0381 44.5301C36.327 44.6543 36.6162 44.7781 36.9055 44.9018Z" fill="white" fill-opacity="0.8"/>
</g>
<defs>
<filter id="filter0_dif_0_709" x="0.0888042" y="0.0887432" width="69.8225" height="101.823" filterUnits="userSpaceOnUse" color-interpolation-filters="sRGB">
<feFlood flood-opacity="0" result="BackgroundImageFix"/>
<feColorMatrix in="SourceAlpha" type="matrix" values="0 0 0 0 0 0 0 0 0 0 0 0 0 0 0 0 0 0 127 0" result="hardAlpha"/>
<feOffset/>
<feGaussianBlur stdDeviation="9.45563"/>
<feColorMatrix type="matrix" values="0 0 0 0 0.258824 0 0 0 0 0.321569 0 0 0 0 0.898039 0 0 0 0.7 0"/>
<feBlend mode="normal" in2="BackgroundImageFix" result="effect1_dropShadow_0_709"/>
<feBlend mode="normal" in="SourceGraphic" in2="effect1_dropShadow_0_709" result="shape"/>
<feColorMatrix in="SourceAlpha" type="matrix" values="0 0 0 0 0 0 0 0 0 0 0 0 0 0 0 0 0 0 127 0" result="hardAlpha"/>
<feOffset/>
<feGaussianBlur stdDeviation="3.66058"/>
<feComposite in2="hardAlpha" operator="arithmetic" k2="-1" k3="1"/>
<feColorMatrix type="matrix" values="0 0 0 0 0.258824 0 0 0 0 0.321569 0 0 0 0 0.898039 0 0 0 0.5 0"/>
<feBlend mode="normal" in2="shape" result="effect2_innerShadow_0_709"/>
<feGaussianBlur stdDeviation="0.5" result="effect3_foregroundBlur_0_709"/>
</filter>
<linearGradient id="paint0_linear_0_709" x1="-133.089" y1="37.4076" x2="-176.623" y2="22.6428" gradientUnits="userSpaceOnUse">
<stop stop-color="white"/>
<stop offset="1" stop-color="white" stop-opacity="0"/>
</linearGradient>
</defs>
</svg>
