<svg width="652" height="760" viewBox="0 0 652 760" fill="none" xmlns="http://www.w3.org/2000/svg">
<path d="M188.87 863.778C174.158 832.141 161.353 800.115 150.771 768.021C105.08 629.435 108.618 512.688 156.85 437.808C206.267 361.088 298.555 333.922 415.722 366.51C524.654 396.807 638.924 473.767 738.681 574.368M191.528 870.68L191.626 870.889L191.848 870.951L471.043 948.603L471.311 947.64L192.338 870.049L189.324 863.567C174.619 831.946 161.821 799.938 151.246 767.864C105.575 629.34 109.157 512.774 157.27 438.079C206.531 361.602 298.556 334.441 415.588 366.992C524.408 397.257 638.605 474.156 738.326 574.72L744.665 581.113L680.767 810.854L681.731 811.122L745.706 581.101L745.784 580.821L745.58 580.615L739.036 574.016C639.243 473.378 524.9 396.356 415.856 366.028C298.555 333.403 206.003 360.574 156.43 437.537C108.078 512.602 104.585 629.531 150.297 768.177C160.884 800.291 173.697 832.335 188.417 863.989L191.528 870.68ZM663.937 785.533L664 785.307L663.865 785.114L662.228 782.76C629.225 735.302 592.809 698.317 560.159 671.996C527.16 645.395 499.025 630.495 482.826 625.99C460.157 619.685 429.399 624.806 410.788 650.388C391.946 676.285 381.894 728.068 413.129 822.806C424.181 856.329 437.76 887.163 452.915 915.287L454.934 919.033L455.037 919.224L455.248 919.279C497.411 930.311 542.243 924.516 580.235 903.069C618.83 881.281 647.228 845.11 659.23 802.457L658.748 802.322L659.23 802.457L659.235 802.437L659.236 802.436L663.937 785.533ZM119.311 317.801L119.796 317.934L119.797 317.932C150.217 326.149 182.388 325.275 212.33 315.405C242.616 305.423 269.262 286.684 288.9 261.56C308.538 236.435 320.286 206.052 322.658 174.251C325.031 142.451 317.922 110.661 302.229 82.9003C286.537 55.1397 262.967 32.6547 234.497 18.2881C206.028 3.92142 173.938 -1.68196 142.285 2.18635C110.631 6.05469 80.8356 19.221 56.664 40.0208C32.4925 60.8207 15.0304 88.3201 6.48552 119.043C0.795077 139.502 -0.798272 160.883 1.79672 181.96C4.39172 203.036 11.1241 223.393 21.6073 241.861C32.0906 260.329 46.1183 276.544 62.8851 289.576C79.6519 302.608 98.8275 312.2 119.311 317.801Z" stroke="url(#paint0_linear_0_605)" stroke-opacity="0.2"/>
<defs>
<linearGradient id="paint0_linear_0_605" x1="373.156" y1="1.49536" x2="373.156" y2="948.122" gradientUnits="userSpaceOnUse">
<stop stop-color="#F2F2F3"/>
<stop offset="1" stop-color="#F2F2F3" stop-opacity="0"/>
</linearGradient>
</defs>
</svg>
