<svg width="99" height="88" viewBox="0 0 99 88" fill="none" xmlns="http://www.w3.org/2000/svg">
<path fill-rule="evenodd" clip-rule="evenodd" d="M30.2962 35.6506C27.0964 37.7916 23.3336 38.9358 19.4835 38.9386H19.5539C16.9901 38.9497 14.4493 38.4543 12.0774 37.4809C9.70546 36.5075 7.54918 35.0751 5.73232 33.2661C3.91545 31.4571 2.47379 29.3071 1.49008 26.9394C0.506374 24.5718 -1.96184e-05 22.0332 0 19.4693C9.80922e-06 15.6192 1.14152 11.8556 3.28021 8.6542C5.41892 5.4528 8.45879 2.95736 12.0155 1.48337C15.5723 0.0093689 19.4862 -0.377009 23.2625 0.373076C27.0388 1.12316 30.5079 2.97603 33.2313 5.69745C35.9547 8.41887 37.8101 11.8867 38.563 15.6624C39.3158 19.4381 38.9322 23.3523 37.4608 26.9101C35.9894 30.4679 33.4961 33.5096 30.2962 35.6506Z" fill="#2F3137"/>
<path d="M59.7271 38.9388C74.4332 38.9388 91.6414 44.6203 108 53.9506V80.2342C95.7081 70.0502 83.1084 65.9065 77.7736 65.9065C70.112 65.9065 58.9043 74.4532 74.103 97.1653C76.8144 101.217 79.7628 104.818 82.8209 108H49.8902C46.8938 104.489 44.1317 100.868 41.6541 97.1653C20.1345 65.0077 28.2261 38.9388 59.7271 38.9388Z" fill="#2F3137"/>
</svg>
