<svg width="257" height="182" viewBox="0 0 257 182" fill="none" xmlns="http://www.w3.org/2000/svg">
<g filter="url(#filter0_dif_0_681)">
<path fill-rule="evenodd" clip-rule="evenodd" d="M196.68 153.451C191.506 155.974 183.288 158.306 177.4 158.834C175.95 158.964 174.163 158.054 173.407 156.801L166.375 145.144C165.618 143.892 163.865 142.566 162.46 142.185L147.183 138.05C145.777 137.67 143.613 137.953 142.355 138.682L130.801 145.379C129.543 146.109 127.55 146.02 126.357 145.184C121.767 141.97 115.963 136.122 112.825 131.655C111.985 130.459 111.87 128.45 112.567 127.168L119.3 114.832C119.997 113.552 120.258 111.365 119.879 109.95L115.765 94.588C115.387 93.1755 114.056 91.4318 112.796 90.6988L100.946 83.8094C99.6851 83.0764 98.7691 81.2995 98.8991 79.8433C99.0155 78.544 99.7054 74.5817 100.753 70.6356C101.823 66.603 103.22 62.7454 103.802 61.4869C104.413 60.1623 106.089 59.063 107.545 59.0353L121.749 58.7563C123.202 58.727 125.218 57.8653 126.245 56.833L137.406 45.6069C138.433 44.5747 139.267 42.5478 139.265 41.0856L139.245 27.5368C139.242 26.0746 140.314 24.3952 141.636 23.7876C146.493 21.5605 154.332 19.4663 159.809 19.0105C161.257 18.89 163.025 19.8204 163.753 21.0878L170.447 32.7257C171.176 33.993 172.91 35.3315 174.313 35.7122L189.592 39.85C190.997 40.2301 193.161 39.947 194.419 39.2178L205.973 32.5205C207.231 31.7913 209.223 31.8779 210.417 32.714C215.203 36.0648 221.149 42.1204 224.376 46.8093C225.204 48.0159 225.289 50.0206 224.564 51.2859L218.163 62.4503C217.437 63.7156 217.156 65.8913 217.535 67.3038L221.649 82.6658C222.028 84.0806 223.357 85.822 224.618 86.555L235.907 93.1202C237.168 93.8532 238.101 95.6327 237.991 97.0909C237.87 98.7054 237.153 102.991 236.021 107.264C234.951 111.297 233.554 115.154 232.972 116.415C232.359 117.738 230.681 118.814 229.227 118.812L216.542 118.793C215.085 118.791 213.072 119.628 212.045 120.66L200.881 131.885C199.854 132.917 199.023 134.943 199.025 136.406L199.045 149.645C199.047 151.107 197.987 152.813 196.68 153.451ZM138.016 97.0924C133.474 80.1339 143.466 62.6987 160.318 58.1809C177.167 53.6636 194.535 63.7638 199.076 80.7222C203.617 97.6784 193.623 115.114 176.774 119.631C159.923 124.149 142.557 114.049 138.016 97.0924Z" fill="url(#paint0_linear_0_681)"/>
<path fill-rule="evenodd" clip-rule="evenodd" d="M196.68 153.451C191.506 155.974 183.288 158.306 177.4 158.834C175.95 158.964 174.163 158.054 173.407 156.801L166.375 145.144C165.618 143.892 163.865 142.566 162.46 142.185L147.183 138.05C145.777 137.67 143.613 137.953 142.355 138.682L130.801 145.379C129.543 146.109 127.55 146.02 126.357 145.184C121.767 141.97 115.963 136.122 112.825 131.655C111.985 130.459 111.87 128.45 112.567 127.168L119.3 114.832C119.997 113.552 120.258 111.365 119.879 109.95L115.765 94.588C115.387 93.1755 114.056 91.4318 112.796 90.6988L100.946 83.8094C99.6851 83.0764 98.7691 81.2995 98.8991 79.8433C99.0155 78.544 99.7054 74.5817 100.753 70.6356C101.823 66.603 103.22 62.7454 103.802 61.4869C104.413 60.1623 106.089 59.063 107.545 59.0353L121.749 58.7563C123.202 58.727 125.218 57.8653 126.245 56.833L137.406 45.6069C138.433 44.5747 139.267 42.5478 139.265 41.0856L139.245 27.5368C139.242 26.0746 140.314 24.3952 141.636 23.7876C146.493 21.5605 154.332 19.4663 159.809 19.0105C161.257 18.89 163.025 19.8204 163.753 21.0878L170.447 32.7257C171.176 33.993 172.91 35.3315 174.313 35.7122L189.592 39.85C190.997 40.2301 193.161 39.947 194.419 39.2178L205.973 32.5205C207.231 31.7913 209.223 31.8779 210.417 32.714C215.203 36.0648 221.149 42.1204 224.376 46.8093C225.204 48.0159 225.289 50.0206 224.564 51.2859L218.163 62.4503C217.437 63.7156 217.156 65.8913 217.535 67.3038L221.649 82.6658C222.028 84.0806 223.357 85.822 224.618 86.555L235.907 93.1202C237.168 93.8532 238.101 95.6327 237.991 97.0909C237.87 98.7054 237.153 102.991 236.021 107.264C234.951 111.297 233.554 115.154 232.972 116.415C232.359 117.738 230.681 118.814 229.227 118.812L216.542 118.793C215.085 118.791 213.072 119.628 212.045 120.66L200.881 131.885C199.854 132.917 199.023 134.943 199.025 136.406L199.045 149.645C199.047 151.107 197.987 152.813 196.68 153.451ZM138.016 97.0924C133.474 80.1339 143.466 62.6987 160.318 58.1809C177.167 53.6636 194.535 63.7638 199.076 80.7222C203.617 97.6784 193.623 115.114 176.774 119.631C159.923 124.149 142.557 114.049 138.016 97.0924Z" fill="white"/>
<path fill-rule="evenodd" clip-rule="evenodd" d="M78.0633 80.466C74.9382 78.9167 69.9752 77.4851 66.419 77.1615C65.5432 77.0813 64.464 77.6403 64.0073 78.4093L59.76 85.5648C59.3032 86.3338 58.2445 87.1479 57.3957 87.3812L48.1687 89.9198C47.3199 90.1532 46.0131 89.9794 45.2532 89.5318L38.275 85.4206C37.515 84.9729 36.3117 85.0275 35.5907 85.5407C32.8186 87.5135 29.3136 91.1033 27.4182 93.8453C26.9107 94.5796 26.8414 95.8127 27.2622 96.5997L31.3287 104.173C31.7498 104.958 31.9072 106.301 31.6784 107.169L29.1937 116.599C28.9653 117.467 28.1618 118.537 27.4005 118.987L20.2434 123.216C19.4822 123.666 18.9289 124.757 19.0074 125.651C19.0777 126.448 19.4944 128.881 20.1269 131.303C20.7732 133.778 21.6173 136.146 21.9688 136.919C22.3374 137.732 23.35 138.407 24.2292 138.424L32.8079 138.595C33.6854 138.613 34.903 139.142 35.5234 139.776L42.2643 146.667C42.8846 147.301 43.3879 148.545 43.3866 149.443L43.3745 157.76C43.3732 158.657 44.0203 159.688 44.8189 160.061C47.7525 161.428 52.4867 162.714 55.7945 162.994C56.6689 163.067 57.7367 162.496 58.1769 161.718L62.2195 154.574C62.6597 153.796 63.7073 152.975 64.5547 152.741L73.7821 150.201C74.6308 149.968 75.9376 150.141 76.6976 150.589L83.6758 154.7C84.4357 155.148 85.6387 155.095 86.3597 154.582C89.2504 152.525 92.8415 148.807 94.7904 145.929C95.2908 145.188 95.3419 143.958 94.9039 143.181L91.0378 136.328C90.5998 135.551 90.4302 134.215 90.6587 133.348L93.1433 123.918C93.3722 123.05 94.1753 121.981 94.9365 121.531L101.755 117.5C102.516 117.051 103.08 115.958 103.014 115.063C102.94 114.072 102.507 111.441 101.824 108.818C101.178 106.342 100.333 103.974 99.9823 103.201C99.612 102.388 98.5985 101.728 97.7203 101.73L90.0589 101.741C89.1794 101.742 87.9636 101.228 87.3432 100.595L80.6006 93.7044C79.9802 93.0707 79.4783 91.8269 79.4796 90.9293L79.4914 82.8019C79.4927 81.9043 78.8527 80.8574 78.0633 80.466ZM42.6324 115.062C39.8895 125.472 45.9241 136.175 56.1017 138.948C66.278 141.721 76.7677 135.521 79.5105 125.111C82.2531 114.702 76.2171 103.999 66.0408 101.226C55.8632 98.4529 45.3749 104.653 42.6324 115.062Z" fill="url(#paint1_linear_0_681)"/>
<path fill-rule="evenodd" clip-rule="evenodd" d="M78.0633 80.466C74.9382 78.9167 69.9752 77.4851 66.419 77.1615C65.5432 77.0813 64.464 77.6403 64.0073 78.4093L59.76 85.5648C59.3032 86.3338 58.2445 87.1479 57.3957 87.3812L48.1687 89.9198C47.3199 90.1532 46.0131 89.9794 45.2532 89.5318L38.275 85.4206C37.515 84.9729 36.3117 85.0275 35.5907 85.5407C32.8186 87.5135 29.3136 91.1033 27.4182 93.8453C26.9107 94.5796 26.8414 95.8127 27.2622 96.5997L31.3287 104.173C31.7498 104.958 31.9072 106.301 31.6784 107.169L29.1937 116.599C28.9653 117.467 28.1618 118.537 27.4005 118.987L20.2434 123.216C19.4822 123.666 18.9289 124.757 19.0074 125.651C19.0777 126.448 19.4944 128.881 20.1269 131.303C20.7732 133.778 21.6173 136.146 21.9688 136.919C22.3374 137.732 23.35 138.407 24.2292 138.424L32.8079 138.595C33.6854 138.613 34.903 139.142 35.5234 139.776L42.2643 146.667C42.8846 147.301 43.3879 148.545 43.3866 149.443L43.3745 157.76C43.3732 158.657 44.0203 159.688 44.8189 160.061C47.7525 161.428 52.4867 162.714 55.7945 162.994C56.6689 163.067 57.7367 162.496 58.1769 161.718L62.2195 154.574C62.6597 153.796 63.7073 152.975 64.5547 152.741L73.7821 150.201C74.6308 149.968 75.9376 150.141 76.6976 150.589L83.6758 154.7C84.4357 155.148 85.6387 155.095 86.3597 154.582C89.2504 152.525 92.8415 148.807 94.7904 145.929C95.2908 145.188 95.3419 143.958 94.9039 143.181L91.0378 136.328C90.5998 135.551 90.4302 134.215 90.6587 133.348L93.1433 123.918C93.3722 123.05 94.1753 121.981 94.9365 121.531L101.755 117.5C102.516 117.051 103.08 115.958 103.014 115.063C102.94 114.072 102.507 111.441 101.824 108.818C101.178 106.342 100.333 103.974 99.9823 103.201C99.612 102.388 98.5985 101.728 97.7203 101.73L90.0589 101.741C89.1794 101.742 87.9636 101.228 87.3432 100.595L80.6006 93.7044C79.9802 93.0707 79.4783 91.8269 79.4796 90.9293L79.4914 82.8019C79.4927 81.9043 78.8527 80.8574 78.0633 80.466ZM42.6324 115.062C39.8895 125.472 45.9241 136.175 56.1017 138.948C66.278 141.721 76.7677 135.521 79.5105 125.111C82.2531 114.702 76.2171 103.999 66.0408 101.226C55.8632 98.4529 45.3749 104.653 42.6324 115.062Z" fill="white"/>
</g>
<defs>
<filter id="filter0_dif_0_681" x="0.0887432" y="0.0887432" width="256.823" height="181.823" filterUnits="userSpaceOnUse" color-interpolation-filters="sRGB">
<feFlood flood-opacity="0" result="BackgroundImageFix"/>
<feColorMatrix in="SourceAlpha" type="matrix" values="0 0 0 0 0 0 0 0 0 0 0 0 0 0 0 0 0 0 127 0" result="hardAlpha"/>
<feOffset/>
<feGaussianBlur stdDeviation="9.45563"/>
<feColorMatrix type="matrix" values="0 0 0 0 0.258824 0 0 0 0 0.321569 0 0 0 0 0.898039 0 0 0 0.5 0"/>
<feBlend mode="normal" in2="BackgroundImageFix" result="effect1_dropShadow_0_681"/>
<feBlend mode="normal" in="SourceGraphic" in2="effect1_dropShadow_0_681" result="shape"/>
<feColorMatrix in="SourceAlpha" type="matrix" values="0 0 0 0 0 0 0 0 0 0 0 0 0 0 0 0 0 0 127 0" result="hardAlpha"/>
<feOffset/>
<feGaussianBlur stdDeviation="3.66058"/>
<feComposite in2="hardAlpha" operator="arithmetic" k2="-1" k3="1"/>
<feColorMatrix type="matrix" values="0 0 0 0 0.258824 0 0 0 0 0.321569 0 0 0 0 0.898039 0 0 0 0.5 0"/>
<feBlend mode="normal" in2="shape" result="effect2_innerShadow_0_681"/>
<feGaussianBlur stdDeviation="0.5" result="effect3_foregroundBlur_0_681"/>
</filter>
<linearGradient id="paint0_linear_0_681" x1="26.4675" y1="147.049" x2="70.4351" y2="70.6298" gradientUnits="userSpaceOnUse">
<stop stop-color="white"/>
<stop offset="1" stop-color="white" stop-opacity="0"/>
</linearGradient>
<linearGradient id="paint1_linear_0_681" x1="26.4675" y1="147.049" x2="70.4351" y2="70.6298" gradientUnits="userSpaceOnUse">
<stop stop-color="white"/>
<stop offset="1" stop-color="white" stop-opacity="0"/>
</linearGradient>
</defs>
</svg>
