<svg width="64" height="64" viewBox="0 0 64 64" fill="none" xmlns="http://www.w3.org/2000/svg">
<path d="M0.82409 14.7853C1.4062 7.30598 7.30573 1.40644 14.7851 0.824334C20.3738 0.389366 26.8208 0.000244141 32 0.000244141C37.1792 0.000244141 43.6262 0.389366 49.2149 0.824334C56.6943 1.40644 62.5938 7.30598 63.1759 14.7853C63.6109 20.374 64 26.8211 64 32.0002C64 37.1794 63.6109 43.6264 63.1759 49.2152C62.5938 56.6945 56.6943 62.594 49.2149 63.1762C43.6262 63.6111 37.1792 64.0002 32 64.0002C26.8208 64.0002 20.3738 63.6111 14.7851 63.1762C7.30574 62.594 1.4062 56.6945 0.82409 49.2152C0.389122 43.6264 0 37.1794 0 32.0002C0 26.8211 0.389122 20.374 0.82409 14.7853Z" fill="url(#paint0_linear_0_644)"/>
<path fill-rule="evenodd" clip-rule="evenodd" d="M32 13.0002C38.6268 13.0002 44 18.3091 44 24.7525C44 28.6036 40.5235 34.2229 37.9651 37.902C38.7955 38.174 39.565 38.5022 40.257 38.8797C42.3832 40.0394 44 41.8059 44 44.0002C44 46.1946 42.3832 47.9611 40.257 49.1208C38.0931 50.3011 35.1719 51.0002 32 51.0002C28.8281 51.0002 25.9069 50.3011 23.743 49.1208C21.6168 47.9611 20 46.1946 20 44.0002C20 41.8059 21.6168 40.0394 23.743 38.8797C24.435 38.5022 25.2045 38.174 26.0349 37.902C23.4689 34.2121 20 28.6008 20 24.7525C20 17.8652 25.7444 13.0002 32 13.0002ZM27.2654 39.6186C26.3042 39.8869 25.4395 40.2325 24.7007 40.6355C22.8456 41.6474 22 42.8809 22 44.0002C22 45.1196 22.8456 46.3531 24.7007 47.365C26.5179 48.3562 29.0968 49.0002 32 49.0002C34.9032 49.0002 37.4821 48.3562 39.2993 47.365C41.1544 46.3531 42 45.1196 42 44.0002C42 42.8809 41.1544 41.6474 39.2993 40.6355C38.5605 40.2325 37.6958 39.8869 36.7346 39.6186L35.7033 41.0157C34.1121 43.1175 32.9145 44.5282 32.8399 44.6159C32.6327 44.8594 32.3248 45.0002 32 45.0002C31.6752 45.0002 31.3673 44.8594 31.1601 44.6159C31.0855 44.5282 29.8879 43.1175 28.2967 41.0157L27.2654 39.6186ZM39.6355 24.7526C39.6355 20.6429 36.2089 17.2481 31.9991 17.2481C27.7948 17.2481 24.3628 20.6382 24.3628 24.7526C24.3628 28.8515 27.7884 32.1862 31.9991 32.1862C36.2098 32.1862 39.6355 28.8515 39.6355 24.7526Z" fill="#F2F2F3"/>
<defs>
<linearGradient id="paint0_linear_0_644" x1="64" y1="64.0002" x2="-4.16383" y2="59.2065" gradientUnits="userSpaceOnUse">
<stop stop-color="#228DE2"/>
<stop offset="0.505208" stop-color="#4252E6"/>
<stop offset="1" stop-color="#4428B6"/>
</linearGradient>
</defs>
</svg>
