<svg width="64" height="64" viewBox="0 0 64 64" fill="none" xmlns="http://www.w3.org/2000/svg">
<path d="M0.82409 14.7853C1.4062 7.30598 7.30573 1.40644 14.7851 0.824334C20.3738 0.389366 26.8208 0.000244141 32 0.000244141C37.1792 0.000244141 43.6262 0.389366 49.2149 0.824334C56.6943 1.40644 62.5938 7.30598 63.1759 14.7853C63.6109 20.374 64 26.8211 64 32.0002C64 37.1794 63.6109 43.6264 63.1759 49.2152C62.5938 56.6945 56.6943 62.594 49.2149 63.1762C43.6262 63.6111 37.1792 64.0002 32 64.0002C26.8208 64.0002 20.3738 63.6111 14.7851 63.1762C7.30574 62.594 1.4062 56.6945 0.82409 49.2152C0.389122 43.6264 0 37.1794 0 32.0002C0 26.8211 0.389122 20.374 0.82409 14.7853Z" fill="url(#paint0_linear_0_668)"/>
<path d="M47.2187 19.9047L32.552 13.1183C32.5467 13.1156 32.5413 13.117 32.536 13.1143C32.1973 12.9622 31.8027 12.9622 31.4627 13.1143C31.4573 13.117 31.452 13.1156 31.4467 13.1183L16.78 19.9047C16.3053 20.1246 16 20.6077 16 21.1398V31.9979C16 42.9145 21.4587 47.0677 31.5307 50.9142C31.8227 51.0255 32.1547 51.0323 32.4653 50.9142C42.54 47.0881 48 42.9403 48 31.9979V21.1398C48 20.6077 47.6947 20.1246 47.2187 19.9047ZM43.42 22.6195C43.7736 22.7832 44 23.1374 44 23.5271V29.6407C44 30.193 43.5523 30.6407 43 30.6407H34.3333C33.7811 30.6407 33.3333 30.193 33.3333 29.6407V19.5162C33.3333 18.786 34.0906 18.302 34.7533 18.6087L43.42 22.6195ZM20.1022 34.4013C20.0497 33.8334 20.5075 33.3552 21.0779 33.3552H29.6667C30.219 33.3552 30.6667 33.8029 30.6667 34.3552V44.6783C30.6667 45.3941 29.9362 45.8778 29.2857 45.579C22.9888 42.6859 20.5961 39.7452 20.1022 34.4013Z" fill="#F2F2F3"/>
<defs>
<linearGradient id="paint0_linear_0_668" x1="64" y1="64.0002" x2="-4.16383" y2="59.2065" gradientUnits="userSpaceOnUse">
<stop stop-color="#228DE2"/>
<stop offset="0.505208" stop-color="#4252E6"/>
<stop offset="1" stop-color="#4428B6"/>
</linearGradient>
</defs>
</svg>
