<svg width="280" height="245" viewBox="0 0 280 245" fill="none" xmlns="http://www.w3.org/2000/svg">
<g filter="url(#filter0_dif_0_606)">
<path fill-rule="evenodd" clip-rule="evenodd" d="M261 113.586C261 165.824 206.826 208.172 140 208.172C124.277 208.172 109.254 205.828 95.4728 201.562C94.8411 201.366 94.163 201.379 93.5414 201.605L26.9267 225.81C24.2736 226.774 21.8796 223.871 23.3283 221.447L48.7101 178.967C49.4564 177.718 49.1969 176.117 48.1217 175.137C29.9681 158.594 19 137.091 19 113.586C19 61.3476 73.1735 19 140 19C206.826 19 261 61.3476 261 113.586ZM133.985 79.0036C134.526 80.3889 136.307 80.8362 137.437 79.8705L144.513 73.8218C148.065 70.7854 150.993 67.115 153.146 63.0022L154.368 60.6674C154.94 59.5736 154.432 58.2231 153.266 57.7382L151.751 57.1085C145.479 54.5014 138.851 52.8368 132.094 52.1715L130.461 52.0108C129.204 51.8871 128.12 52.8376 128.109 54.0724L128.086 56.7083C128.045 61.3515 128.897 65.9714 130.598 70.3271L133.985 79.0036ZM97.747 76.0949L101.073 76.2457C101.217 76.2523 101.339 76.1416 101.345 75.9986L101.599 70.3967C101.605 70.2641 101.509 70.1484 101.377 70.1291C99.7248 69.8884 98.0618 69.7313 96.3941 69.6582C91.2049 69.4228 87.5126 72.4431 87.2491 78.2688L87.0337 83.0307C87.0272 83.1737 86.9052 83.2844 86.7612 83.2778L81.426 83.0359C81.2819 83.0293 81.1599 83.14 81.1534 83.283L80.8683 89.5873C80.8618 89.7303 80.9733 89.8516 81.1174 89.8581L86.4526 90.1001C86.5966 90.1066 86.7082 90.2279 86.7017 90.3709L85.9346 107.33C85.9281 107.473 86.0397 107.594 86.1837 107.601L92.6827 107.896C92.8267 107.902 92.9487 107.792 92.9552 107.649L93.7223 90.6893C93.7288 90.5463 93.8508 90.4356 93.9948 90.4421L99.3421 90.6847C99.4734 90.6906 99.5886 90.5988 99.6111 90.4702L100.707 84.2027C100.734 84.0488 100.619 83.9063 100.462 83.8992L94.3034 83.6199C94.1593 83.6134 94.0478 83.4921 94.0543 83.3491L94.2393 79.2579C94.3304 77.2457 94.9235 75.9668 97.747 76.0949ZM79.4192 147.034C78.3141 144.099 79.4532 140.819 82.1385 139.203C84.539 137.759 87.4796 136.063 89.8844 134.898C92.2891 133.732 95.442 132.475 98.0624 131.486C100.994 130.379 104.27 131.52 105.883 134.209C107.325 136.613 109.019 139.557 110.183 141.965C111.347 144.373 112.602 147.53 113.59 150.154C114.695 153.089 113.556 156.37 110.871 157.985C108.47 159.429 105.53 161.125 103.125 162.291C100.72 163.456 97.5672 164.713 94.9468 165.702C92.0155 166.809 88.7396 165.668 87.1263 162.979C85.6841 160.576 83.9901 157.631 82.8262 155.223C81.6624 152.815 80.4071 149.658 79.4192 147.034ZM175.41 155.61C174.77 154.217 173.977 152.913 173.185 151.61C173.084 151.444 172.982 151.277 172.882 151.111C172.365 150.259 171.918 149.378 171.659 148.409C171.151 146.498 172.574 145.003 174.495 145.379C175.038 145.486 175.511 145.733 175.967 146.018C177.715 147.126 179.085 148.587 180.066 150.433C180.553 151.354 180.889 151.413 181.729 150.777C182.295 150.347 182.847 149.898 183.398 149.45L183.4 149.449L183.401 149.447C183.713 149.194 184.024 148.941 184.338 148.691C184.923 148.224 184.992 147.691 184.635 147.064C183.977 145.921 183.204 144.886 182.274 143.961C181.057 142.76 181.062 142.753 182.076 141.317C182.799 140.294 183.157 139.789 183.082 139.359C183.008 138.938 182.52 138.589 181.555 137.9C181.461 137.833 181.368 137.765 181.274 137.697C181.087 137.561 180.899 137.425 180.708 137.295C179.778 136.671 179.505 136.727 178.801 137.661C178.62 137.9 178.448 138.144 178.274 138.389L178.274 138.389L178.274 138.39C178.144 138.574 178.014 138.759 177.879 138.942C176.987 140.181 176.979 140.179 175.573 139.804L175.497 139.784C171.914 138.833 168.744 139.584 166.281 142.648C164.097 145.36 164.161 148.29 165.41 151.282C165.933 152.54 166.643 153.683 167.353 154.828L167.353 154.828C167.685 155.362 168.016 155.896 168.329 156.442C168.715 157.11 169.048 157.799 169.228 158.551C169.775 160.761 168.091 162.582 165.881 162.15C164.699 161.919 163.684 161.345 162.805 160.526C161.447 159.265 160.305 157.836 159.474 156.147C158.988 155.157 158.677 155.105 157.776 155.799C157 156.399 156.245 157.024 155.491 157.649L155.49 157.649L155.49 157.65L155.49 157.65L155.49 157.65L155.489 157.65L155.489 157.651L155.489 157.651L155.488 157.651L155.488 157.651L155.488 157.652L155.488 157.652C154.471 158.494 154.399 158.814 155.009 159.983C155.792 161.467 156.872 162.71 158.044 163.879C158.961 164.795 158.96 164.865 158.175 165.993C157.998 166.248 157.818 166.504 157.639 166.76L157.634 166.767L157.63 166.772L157.63 166.772L157.63 166.773C157.453 167.025 157.276 167.276 157.102 167.527C156.653 168.171 156.682 168.755 157.308 169.222C158.018 169.749 158.743 170.267 159.476 170.761C160.076 171.169 160.615 171.052 161.056 170.432C161.232 170.185 161.413 169.94 161.594 169.695C161.92 169.252 162.247 168.809 162.548 168.352C163.019 167.623 163.57 167.474 164.358 167.755C166.17 168.406 168.052 168.484 169.932 167.937C175.147 166.436 177.711 160.62 175.41 155.61ZM147.501 126.48C141.826 131.82 132.903 131.542 127.571 125.86C122.239 120.177 122.516 111.243 128.191 105.903C133.865 100.564 142.788 100.842 148.121 106.524C153.453 112.206 153.175 121.141 147.501 126.48ZM175.581 88.6855C175.436 86.9859 176.264 85.3506 177.718 84.4623L189.51 77.2583C190.894 76.4304 192.668 77.3335 192.804 78.9349L193.461 86.6533C193.473 86.8027 193.605 86.9135 193.755 86.9007L194.027 86.8775C195.547 86.7478 196.843 87.8363 196.972 89.3513C197.032 90.0547 196.766 90.7859 196.319 91.3146C195.871 91.8432 195.247 92.2234 194.487 92.2883L194.215 92.3114C194.065 92.3242 193.954 92.4557 193.967 92.6051L194.623 100.324C194.76 101.925 193.163 103.116 191.66 102.534L178.821 97.4305C177.238 96.8012 176.146 95.3296 176.001 93.6301L175.581 88.6855ZM173.343 88.0966C173.241 86.9013 172.186 86.0153 170.986 86.1176L169.9 86.2102C168.7 86.3126 167.81 87.3645 167.911 88.5598L168.464 95.0527C168.565 96.248 169.62 97.134 170.82 97.0317L171.906 96.9391C173.106 96.8367 173.996 95.7848 173.895 94.5895L173.343 88.0966ZM169.763 102.027C169.291 100.687 170.216 99.2633 171.636 99.1421L172.58 99.0616C173.571 98.9771 174.493 99.5711 174.822 100.506L176.218 104.474C176.689 105.814 175.765 107.238 174.345 107.359L173.401 107.439C172.41 107.524 171.488 106.93 171.159 105.995L169.763 102.027ZM196.444 83.1396C197.123 83.0817 197.917 83.5242 198.637 84.6055C199.345 85.6695 199.885 87.231 200.038 89.0383C200.192 90.8456 199.924 92.4761 199.406 93.6447C198.879 94.8322 198.171 95.4028 197.492 95.4608C197.421 95.4668 197.369 95.529 197.375 95.5998L197.494 96.9973C197.5 97.068 197.562 97.1205 197.633 97.1144C199.074 96.9915 200.152 95.8336 200.799 94.3745C201.454 92.8957 201.748 90.9592 201.574 88.9074C201.399 86.8556 200.782 84.9968 199.886 83.6503C199.002 82.3218 197.745 81.363 196.303 81.4859C196.233 81.492 196.18 81.5542 196.186 81.6249L196.305 83.0224C196.311 83.0932 196.373 83.1456 196.444 83.1396ZM202.335 81.6522C201.415 80.2279 200.36 79.4085 199.326 79.2288C198.976 79.1681 198.662 78.913 198.632 78.5593L198.6 78.1933C198.57 77.8395 198.834 77.5225 199.187 77.5531C200.843 77.6964 202.339 78.9301 203.472 80.6858C204.758 82.6782 205.661 85.4528 205.923 88.5364C206.186 91.6201 205.764 94.5076 204.833 96.6891C204.013 98.6114 202.747 100.081 201.139 100.502C200.796 100.592 200.483 100.324 200.453 99.9707L200.422 99.6047C200.392 99.2509 200.659 98.9463 200.993 98.8273C201.982 98.475 202.884 97.4886 203.549 95.9292C204.346 94.0605 204.742 91.4867 204.502 88.6577C204.261 85.8287 203.436 83.359 202.335 81.6522ZM196.314 81.614C196.4 81.6067 196.485 81.6034 196.57 81.604C196.543 81.6038 196.516 81.604 196.489 81.6046C196.474 81.605 196.458 81.6054 196.442 81.606C196.4 81.6077 196.357 81.6104 196.314 81.614Z" fill="url(#paint0_linear_0_606)"/>
<path fill-rule="evenodd" clip-rule="evenodd" d="M261 113.586C261 165.824 206.826 208.172 140 208.172C124.277 208.172 109.254 205.828 95.4728 201.562C94.8411 201.366 94.163 201.379 93.5414 201.605L26.9267 225.81C24.2736 226.774 21.8796 223.871 23.3283 221.447L48.7101 178.967C49.4564 177.718 49.1969 176.117 48.1217 175.137C29.9681 158.594 19 137.091 19 113.586C19 61.3476 73.1735 19 140 19C206.826 19 261 61.3476 261 113.586ZM133.985 79.0036C134.526 80.3889 136.307 80.8362 137.437 79.8705L144.513 73.8218C148.065 70.7854 150.993 67.115 153.146 63.0022L154.368 60.6674C154.94 59.5736 154.432 58.2231 153.266 57.7382L151.751 57.1085C145.479 54.5014 138.851 52.8368 132.094 52.1715L130.461 52.0108C129.204 51.8871 128.12 52.8376 128.109 54.0724L128.086 56.7083C128.045 61.3515 128.897 65.9714 130.598 70.3271L133.985 79.0036ZM97.747 76.0949L101.073 76.2457C101.217 76.2523 101.339 76.1416 101.345 75.9986L101.599 70.3967C101.605 70.2641 101.509 70.1484 101.377 70.1291C99.7248 69.8884 98.0618 69.7313 96.3941 69.6582C91.2049 69.4228 87.5126 72.4431 87.2491 78.2688L87.0337 83.0307C87.0272 83.1737 86.9052 83.2844 86.7612 83.2778L81.426 83.0359C81.2819 83.0293 81.1599 83.14 81.1534 83.283L80.8683 89.5873C80.8618 89.7303 80.9733 89.8516 81.1174 89.8581L86.4526 90.1001C86.5966 90.1066 86.7082 90.2279 86.7017 90.3709L85.9346 107.33C85.9281 107.473 86.0397 107.594 86.1837 107.601L92.6827 107.896C92.8267 107.902 92.9487 107.792 92.9552 107.649L93.7223 90.6893C93.7288 90.5463 93.8508 90.4356 93.9948 90.4421L99.3421 90.6847C99.4734 90.6906 99.5886 90.5988 99.6111 90.4702L100.707 84.2027C100.734 84.0488 100.619 83.9063 100.462 83.8992L94.3034 83.6199C94.1593 83.6134 94.0478 83.4921 94.0543 83.3491L94.2393 79.2579C94.3304 77.2457 94.9235 75.9668 97.747 76.0949ZM79.4192 147.034C78.3141 144.099 79.4532 140.819 82.1385 139.203C84.539 137.759 87.4796 136.063 89.8844 134.898C92.2891 133.732 95.442 132.475 98.0624 131.486C100.994 130.379 104.27 131.52 105.883 134.209C107.325 136.613 109.019 139.557 110.183 141.965C111.347 144.373 112.602 147.53 113.59 150.154C114.695 153.089 113.556 156.37 110.871 157.985C108.47 159.429 105.53 161.125 103.125 162.291C100.72 163.456 97.5672 164.713 94.9468 165.702C92.0155 166.809 88.7396 165.668 87.1263 162.979C85.6841 160.576 83.9901 157.631 82.8262 155.223C81.6624 152.815 80.4071 149.658 79.4192 147.034ZM175.41 155.61C174.77 154.217 173.977 152.913 173.185 151.61C173.084 151.444 172.982 151.277 172.882 151.111C172.365 150.259 171.918 149.378 171.659 148.409C171.151 146.498 172.574 145.003 174.495 145.379C175.038 145.486 175.511 145.733 175.967 146.018C177.715 147.126 179.085 148.587 180.066 150.433C180.553 151.354 180.889 151.413 181.729 150.777C182.295 150.347 182.847 149.898 183.398 149.45L183.4 149.449L183.401 149.447C183.713 149.194 184.024 148.941 184.338 148.691C184.923 148.224 184.992 147.691 184.635 147.064C183.977 145.921 183.204 144.886 182.274 143.961C181.057 142.76 181.062 142.753 182.076 141.317C182.799 140.294 183.157 139.789 183.082 139.359C183.008 138.938 182.52 138.589 181.555 137.9C181.461 137.833 181.368 137.765 181.274 137.697C181.087 137.561 180.899 137.425 180.708 137.295C179.778 136.671 179.505 136.727 178.801 137.661C178.62 137.9 178.448 138.144 178.274 138.389L178.274 138.389L178.274 138.39C178.144 138.574 178.014 138.759 177.879 138.942C176.987 140.181 176.979 140.179 175.573 139.804L175.497 139.784C171.914 138.833 168.744 139.584 166.281 142.648C164.097 145.36 164.161 148.29 165.41 151.282C165.933 152.54 166.643 153.683 167.353 154.828L167.353 154.828C167.685 155.362 168.016 155.896 168.329 156.442C168.715 157.11 169.048 157.799 169.228 158.551C169.775 160.761 168.091 162.582 165.881 162.15C164.699 161.919 163.684 161.345 162.805 160.526C161.447 159.265 160.305 157.836 159.474 156.147C158.988 155.157 158.677 155.105 157.776 155.799C157 156.399 156.245 157.024 155.491 157.649L155.49 157.649L155.49 157.65L155.49 157.65L155.49 157.65L155.489 157.65L155.489 157.651L155.489 157.651L155.488 157.651L155.488 157.651L155.488 157.652L155.488 157.652C154.471 158.494 154.399 158.814 155.009 159.983C155.792 161.467 156.872 162.71 158.044 163.879C158.961 164.795 158.96 164.865 158.175 165.993C157.998 166.248 157.818 166.504 157.639 166.76L157.634 166.767L157.63 166.772L157.63 166.772L157.63 166.773C157.453 167.025 157.276 167.276 157.102 167.527C156.653 168.171 156.682 168.755 157.308 169.222C158.018 169.749 158.743 170.267 159.476 170.761C160.076 171.169 160.615 171.052 161.056 170.432C161.232 170.185 161.413 169.94 161.594 169.695C161.92 169.252 162.247 168.809 162.548 168.352C163.019 167.623 163.57 167.474 164.358 167.755C166.17 168.406 168.052 168.484 169.932 167.937C175.147 166.436 177.711 160.62 175.41 155.61ZM147.501 126.48C141.826 131.82 132.903 131.542 127.571 125.86C122.239 120.177 122.516 111.243 128.191 105.903C133.865 100.564 142.788 100.842 148.121 106.524C153.453 112.206 153.175 121.141 147.501 126.48ZM175.581 88.6855C175.436 86.9859 176.264 85.3506 177.718 84.4623L189.51 77.2583C190.894 76.4304 192.668 77.3335 192.804 78.9349L193.461 86.6533C193.473 86.8027 193.605 86.9135 193.755 86.9007L194.027 86.8775C195.547 86.7478 196.843 87.8363 196.972 89.3513C197.032 90.0547 196.766 90.7859 196.319 91.3146C195.871 91.8432 195.247 92.2234 194.487 92.2883L194.215 92.3114C194.065 92.3242 193.954 92.4557 193.967 92.6051L194.623 100.324C194.76 101.925 193.163 103.116 191.66 102.534L178.821 97.4305C177.238 96.8012 176.146 95.3296 176.001 93.6301L175.581 88.6855ZM173.343 88.0966C173.241 86.9013 172.186 86.0153 170.986 86.1176L169.9 86.2102C168.7 86.3126 167.81 87.3645 167.911 88.5598L168.464 95.0527C168.565 96.248 169.62 97.134 170.82 97.0317L171.906 96.9391C173.106 96.8367 173.996 95.7848 173.895 94.5895L173.343 88.0966ZM169.763 102.027C169.291 100.687 170.216 99.2633 171.636 99.1421L172.58 99.0616C173.571 98.9771 174.493 99.5711 174.822 100.506L176.218 104.474C176.689 105.814 175.765 107.238 174.345 107.359L173.401 107.439C172.41 107.524 171.488 106.93 171.159 105.995L169.763 102.027ZM196.444 83.1396C197.123 83.0817 197.917 83.5242 198.637 84.6055C199.345 85.6695 199.885 87.231 200.038 89.0383C200.192 90.8456 199.924 92.4761 199.406 93.6447C198.879 94.8322 198.171 95.4028 197.492 95.4608C197.421 95.4668 197.369 95.529 197.375 95.5998L197.494 96.9973C197.5 97.068 197.562 97.1205 197.633 97.1144C199.074 96.9915 200.152 95.8336 200.799 94.3745C201.454 92.8957 201.748 90.9592 201.574 88.9074C201.399 86.8556 200.782 84.9968 199.886 83.6503C199.002 82.3218 197.745 81.363 196.303 81.4859C196.233 81.492 196.18 81.5542 196.186 81.6249L196.305 83.0224C196.311 83.0932 196.373 83.1456 196.444 83.1396ZM202.335 81.6522C201.415 80.2279 200.36 79.4085 199.326 79.2288C198.976 79.1681 198.662 78.913 198.632 78.5593L198.6 78.1933C198.57 77.8395 198.834 77.5225 199.187 77.5531C200.843 77.6964 202.339 78.9301 203.472 80.6858C204.758 82.6782 205.661 85.4528 205.923 88.5364C206.186 91.6201 205.764 94.5076 204.833 96.6891C204.013 98.6114 202.747 100.081 201.139 100.502C200.796 100.592 200.483 100.324 200.453 99.9707L200.422 99.6047C200.392 99.2509 200.659 98.9463 200.993 98.8273C201.982 98.475 202.884 97.4886 203.549 95.9292C204.346 94.0605 204.742 91.4867 204.502 88.6577C204.261 85.8287 203.436 83.359 202.335 81.6522ZM196.314 81.614C196.4 81.6067 196.485 81.6034 196.57 81.604C196.543 81.6038 196.516 81.604 196.489 81.6046C196.474 81.605 196.458 81.6054 196.442 81.606C196.4 81.6077 196.357 81.6104 196.314 81.614Z" fill="white" fill-opacity="0.8"/>
</g>
<defs>
<filter id="filter0_dif_0_606" x="0.0887432" y="0.0887432" width="279.823" height="244.823" filterUnits="userSpaceOnUse" color-interpolation-filters="sRGB">
<feFlood flood-opacity="0" result="BackgroundImageFix"/>
<feColorMatrix in="SourceAlpha" type="matrix" values="0 0 0 0 0 0 0 0 0 0 0 0 0 0 0 0 0 0 127 0" result="hardAlpha"/>
<feOffset/>
<feGaussianBlur stdDeviation="9.45563"/>
<feColorMatrix type="matrix" values="0 0 0 0 0.258824 0 0 0 0 0.321569 0 0 0 0 0.898039 0 0 0 0.5 0"/>
<feBlend mode="normal" in2="BackgroundImageFix" result="effect1_dropShadow_0_606"/>
<feBlend mode="normal" in="SourceGraphic" in2="effect1_dropShadow_0_606" result="shape"/>
<feColorMatrix in="SourceAlpha" type="matrix" values="0 0 0 0 0 0 0 0 0 0 0 0 0 0 0 0 0 0 127 0" result="hardAlpha"/>
<feOffset/>
<feGaussianBlur stdDeviation="3.66058"/>
<feComposite in2="hardAlpha" operator="arithmetic" k2="-1" k3="1"/>
<feColorMatrix type="matrix" values="0 0 0 0 0.258824 0 0 0 0 0.321569 0 0 0 0 0.898039 0 0 0 0.5 0"/>
<feBlend mode="normal" in2="shape" result="effect2_innerShadow_0_606"/>
<feGaussianBlur stdDeviation="0.5" result="effect3_foregroundBlur_0_606"/>
</filter>
<linearGradient id="paint0_linear_0_606" x1="140" y1="19" x2="140" y2="228.5" gradientUnits="userSpaceOnUse">
<stop stop-color="white"/>
<stop offset="1" stop-color="white" stop-opacity="0"/>
</linearGradient>
</defs>
</svg>
