<svg width="64" height="64" viewBox="0 0 64 64" fill="none" xmlns="http://www.w3.org/2000/svg">
<path d="M0.82409 14.7853C1.4062 7.30598 7.30573 1.40644 14.7851 0.824334C20.3738 0.389366 26.8208 0.000244141 32 0.000244141C37.1792 0.000244141 43.6262 0.389366 49.2149 0.824334C56.6943 1.40644 62.5938 7.30598 63.1759 14.7853C63.6109 20.374 64 26.8211 64 32.0002C64 37.1794 63.6109 43.6264 63.1759 49.2152C62.5938 56.6945 56.6943 62.594 49.2149 63.1762C43.6262 63.6111 37.1792 64.0002 32 64.0002C26.8208 64.0002 20.3738 63.6111 14.7851 63.1762C7.30574 62.594 1.4062 56.6945 0.82409 49.2152C0.389122 43.6264 0 37.1794 0 32.0002C0 26.8211 0.389122 20.374 0.82409 14.7853Z" fill="url(#paint0_linear_0_650)"/>
<path d="M19.0562 37.7293L15.3413 41.4457C15.1937 41.5899 15.0883 41.7716 15.0364 41.9713C14.9845 42.171 14.9881 42.381 15.0468 42.5788C15.0981 42.7719 15.1994 42.948 15.3406 43.0893C15.4819 43.2306 15.6579 43.332 15.851 43.3833L19.6225 44.4144L20.6758 48.1534C20.7271 48.3465 20.8284 48.5227 20.9697 48.664C21.1109 48.8052 21.287 48.9066 21.48 48.9579C21.5876 48.9831 21.698 48.9945 21.8084 48.9919C21.9575 48.9928 22.1053 48.9642 22.2433 48.9078C22.3812 48.8514 22.5068 48.7683 22.6126 48.6633L27.4714 43.7798C24.0705 42.7581 21.1085 40.6284 19.0562 37.7293ZM48.6624 41.4457L44.9475 37.7293C42.8952 40.6284 39.9332 42.7581 36.5322 43.7798L41.4024 48.6633C41.5083 48.7683 41.6338 48.8514 41.7718 48.9078C41.9098 48.9642 42.0575 48.9928 42.2066 48.9919C42.3044 49.003 42.4032 49.003 42.5011 48.9919C42.6941 48.9406 42.8701 48.8392 43.0114 48.6979C43.1526 48.5567 43.254 48.3805 43.3052 48.1874L44.3359 44.4144L48.1527 43.3266C48.3465 43.2762 48.5234 43.1752 48.6654 43.0341C48.8075 42.893 48.9096 42.7167 48.9614 42.5233C49.0132 42.3298 49.0128 42.1261 48.9603 41.9328C48.9078 41.7395 48.805 41.5637 48.6624 41.4231V41.4457ZM33.327 28.087L32.0018 26.1042L30.6767 28.087C30.5236 28.3171 30.2917 28.4832 30.0247 28.5542C29.7577 28.6251 29.474 28.596 29.227 28.4723L26.6333 27.1806L27.3242 31.9961H36.6795L37.3704 27.1806L34.7767 28.4723C34.5297 28.596 34.246 28.6251 33.979 28.5542C33.712 28.4832 33.4801 28.3171 33.327 28.087Z" fill="#F2F2F3"/>
<path d="M45.593 28.5969C45.593 25.9077 44.7959 23.279 43.3025 21.043C41.8091 18.8071 39.6864 17.0643 37.203 16.0352C34.7195 15.0061 31.9868 14.7369 29.3503 15.2615C26.7139 15.7861 24.2922 17.0811 22.3914 18.9826C20.4906 20.8841 19.1962 23.3068 18.6718 25.9443C18.1474 28.5818 18.4165 31.3157 19.4452 33.8001C20.4739 36.2846 22.2159 38.4081 24.451 39.9021C26.686 41.3961 29.3138 42.1936 32.0018 42.1936C35.6065 42.1936 39.0634 40.7611 41.6123 38.2112C44.1611 35.6613 45.593 32.203 45.593 28.5969ZM39.93 25.3564L38.7974 33.2878C38.759 33.56 38.6229 33.809 38.4145 33.9882C38.2061 34.1675 37.9397 34.2649 37.6648 34.2622H26.3388C26.064 34.2649 25.7976 34.1675 25.5892 33.9882C25.3808 33.809 25.2447 33.56 25.2062 33.2878L24.0736 25.3564C24.0524 25.1545 24.0858 24.9505 24.1703 24.766C24.2548 24.5814 24.3873 24.4229 24.554 24.3071C24.7207 24.1913 24.9154 24.1224 25.1178 24.1077C25.3202 24.0929 25.5229 24.1329 25.7046 24.2233L29.3402 26.0362L31.0505 23.4755C31.1541 23.3213 31.294 23.1949 31.4579 23.1075C31.6219 23.0201 31.8048 22.9744 31.9905 22.9744C32.1763 22.9744 32.3592 23.0201 32.5231 23.1075C32.687 23.1949 32.827 23.3213 32.9306 23.4755L34.6408 26.0362L38.2765 24.2233C38.4581 24.1329 38.6608 24.0929 38.8632 24.1077C39.0656 24.1224 39.2604 24.1913 39.4271 24.3071C39.5937 24.4229 39.7263 24.5814 39.8108 24.766C39.8953 24.9505 39.9286 25.1545 39.9074 25.3564H39.93Z" fill="#F2F2F3"/>
<defs>
<linearGradient id="paint0_linear_0_650" x1="64" y1="64.0002" x2="-4.16383" y2="59.2065" gradientUnits="userSpaceOnUse">
<stop stop-color="#228DE2"/>
<stop offset="0.505208" stop-color="#4252E6"/>
<stop offset="1" stop-color="#4428B6"/>
</linearGradient>
</defs>
</svg>
