<svg width="64" height="64" viewBox="0 0 64 64" fill="none" xmlns="http://www.w3.org/2000/svg">
<path d="M0.82409 14.7851C1.4062 7.30574 7.30573 1.4062 14.7851 0.82409C20.3738 0.389122 26.8208 0 32 0C37.1792 0 43.6262 0.389122 49.2149 0.82409C56.6943 1.4062 62.5938 7.30573 63.1759 14.7851C63.6109 20.3738 64 26.8208 64 32C64 37.1792 63.6109 43.6262 63.1759 49.2149C62.5938 56.6943 56.6943 62.5938 49.2149 63.1759C43.6262 63.6109 37.1792 64 32 64C26.8208 64 20.3738 63.6109 14.7851 63.1759C7.30574 62.5938 1.4062 56.6943 0.82409 49.2149C0.389122 43.6262 0 37.1792 0 32C0 26.8208 0.389122 20.3738 0.82409 14.7851Z" fill="url(#paint0_linear_0_656)"/>
<path d="M32.34 19.18C31.9 19.52 31.28 19.48 30.9 19.1L30.8 19C30.34 18.54 30.38 17.82 30.86 17.4C33.52 15.14 36.76 14 40 14C43.24 14 46.48 15.14 49.14 17.4C49.62 17.82 49.64 18.56 49.2 19L49.12 19.1C48.72 19.48 48.1 19.52 47.68 19.18C45.4 17.38 42.7 16.4 40 16.4C37.3 16.4 34.6 17.38 32.34 19.18Z" fill="#F2F2F3"/>
<path d="M34.22 22.22C33.78 21.78 33.8 21.02 34.3 20.62C35.96 19.32 37.98 18.6 40 18.6C42.02 18.6 44.04 19.32 45.7 20.6C46.2 21 46.24 21.74 45.78 22.2L45.7 22.28C45.32 22.68 44.7 22.7 44.26 22.36C43 21.42 41.5 21 40 21C38.5 21 37 21.42 35.74 22.38C35.3 22.7 34.7 22.7 34.3 22.3L34.22 22.22Z" fill="#F2F2F3"/>
<path fill-rule="evenodd" clip-rule="evenodd" d="M46 34H42V28C42 26.9 41.1 26 40 26C38.9 26 38 26.9 38 28V34H18C15.8 34 14 35.8 14 38V46C14 48.2 15.8 50 18 50H46C48.2 50 50 48.2 50 46V38C50 35.8 48.2 34 46 34ZM20 43C20 43.5523 20.4477 44 21 44H23C23.5523 44 24 43.5523 24 43V41C24 40.4477 23.5523 40 23 40H21C20.4477 40 20 40.4477 20 41V43ZM27 43C27 43.5523 27.4477 44 28 44H30C30.5523 44 31 43.5523 31 43V41C31 40.4477 30.5523 40 30 40H28C27.4477 40 27 40.4477 27 41V43ZM34 43C34 43.5523 34.4477 44 35 44H37C37.5523 44 38 43.5523 38 43V41C38 40.4477 37.5523 40 37 40H35C34.4477 40 34 40.4477 34 41V43Z" fill="#F2F2F3"/>
<defs>
<linearGradient id="paint0_linear_0_656" x1="64" y1="64" x2="-4.16383" y2="59.2062" gradientUnits="userSpaceOnUse">
<stop stop-color="#228DE2"/>
<stop offset="0.505208" stop-color="#4252E6"/>
<stop offset="1" stop-color="#4428B6"/>
</linearGradient>
</defs>
</svg>
