<svg width="21" height="18" viewBox="0 0 21 18" fill="none" xmlns="http://www.w3.org/2000/svg">
<path fill-rule="evenodd" clip-rule="evenodd" d="M0.5 0.5C0.5 0.223858 0.723858 0 1 0H6C6.27614 0 6.5 0.223858 6.5 0.5V1.5C6.5 1.77614 6.27614 2 6 2H3C2.72386 2 2.5 2.22386 2.5 2.5V15.5C2.5 15.7761 2.72386 16 3 16H6C6.27614 16 6.5 16.2239 6.5 16.5V17.5C6.5 17.7761 6.27614 18 6 18H1C0.723858 18 0.5 17.7761 0.5 17.5V0.5Z" fill="#F2F2F3"/>
<path d="M14.3804 13.9776L13.7195 14.806C13.537 15.0347 13.2116 15.0656 12.9926 14.875L6.67115 9.37194C6.44295 9.17328 6.44295 8.82672 6.67115 8.62806L12.9926 3.12498C13.2116 2.93435 13.537 2.96526 13.7195 3.19402L14.3804 4.02243C14.5628 4.25119 14.5333 4.59118 14.3143 4.78181L10.6175 8H20C20.2761 8 20.5 8.22386 20.5 8.5V9.5C20.5 9.77614 20.2761 10 20 10H10.6175L14.3143 13.2182C14.5333 13.4088 14.5628 13.7488 14.3804 13.9776Z" fill="#F2F2F3"/>
</svg>
