<svg width="64" height="64" viewBox="0 0 64 64" fill="none" xmlns="http://www.w3.org/2000/svg">
<path d="M0.82409 14.7851C1.4062 7.30574 7.30573 1.4062 14.7851 0.82409C20.3738 0.389122 26.8208 0 32 0C37.1792 0 43.6262 0.389122 49.2149 0.82409C56.6943 1.4062 62.5938 7.30573 63.1759 14.7851C63.6109 20.3738 64 26.8208 64 32C64 37.1792 63.6109 43.6262 63.1759 49.2149C62.5938 56.6943 56.6943 62.5938 49.2149 63.1759C43.6262 63.6109 37.1792 64 32 64C26.8208 64 20.3738 63.6109 14.7851 63.1759C7.30574 62.5938 1.4062 56.6943 0.82409 49.2149C0.389122 43.6262 0 37.1792 0 32C0 26.8208 0.389122 20.3738 0.82409 14.7851Z" fill="url(#paint0_linear_0_638)"/>
<g clip-path="url(#clip0_0_638)">
<path d="M49.9789 24.3815L47.2845 12.3454C47.2524 12.1938 47.1562 12.1028 47.0599 12.0725C46.9958 12.0119 46.8675 11.9816 46.675 12.0119C46.6109 12.0119 46.5788 12.0422 46.5146 12.0725L35.4161 18.3483C35.1915 18.4696 35.0953 18.7727 35.2557 18.985C35.3198 19.0759 35.384 19.1366 35.4802 19.1669L38.5275 20.4099L37.9181 21.8955C37.7256 22.4109 33.0745 33.5981 14.5341 33.5981C13.8284 33.5981 13.0585 33.5678 12.3208 33.5375H12.2245C12.1604 33.5375 12.1283 33.5678 12.0642 33.5981C12.0321 33.6284 12 33.6891 12 33.7497C12 33.8407 12.0642 33.9316 12.1604 33.9619L12.2245 33.9922C16.2341 35.2656 20.4041 35.9326 24.6383 35.9932C39.9389 35.9932 45.424 25.2304 45.4882 25.1091L46.2259 23.6236L49.3374 24.8969C49.4657 24.9576 49.6261 24.9272 49.6902 24.8969C49.7865 24.8666 49.8827 24.806 49.9469 24.6544C50.011 24.5634 50.011 24.4725 49.9789 24.3815ZM14.1812 47.9575C14.1812 49.0856 15.1487 50 16.3422 50H20.0074C21.2008 50 22.1683 49.0856 22.1683 47.9575V40.9571C22.1683 39.8855 21.2914 39.0015 20.165 38.8798C19.0708 38.7617 17.982 38.6068 16.8986 38.4133C15.5122 38.1655 14.1812 39.1404 14.1812 40.474V47.9575ZM40.7938 34.581C40.1911 34.9825 39.8106 35.6267 39.8106 36.3236V47.9575C39.8106 49.0856 40.7781 50 41.9715 50H45.6338C46.8284 50 47.7964 49.0839 47.7948 47.9548L47.7758 34.7573C47.7728 32.7117 44.5372 31.6763 42.9036 33.018C42.2612 33.5456 41.5587 34.0714 40.7938 34.581ZM26.9799 47.9575C26.9799 49.0856 27.9474 50 29.1408 50H32.806C33.9995 50 34.967 49.0856 34.967 47.9575V40.4261C34.967 39 33.4542 38.0068 31.9892 38.3477C31.0355 38.5696 30.0328 38.7518 28.9764 38.8883C27.855 39.0331 26.9799 39.9133 26.9799 40.9831V47.9575Z" fill="#F2F2F3"/>
</g>
<defs>
<linearGradient id="paint0_linear_0_638" x1="64" y1="64" x2="-4.16383" y2="59.2062" gradientUnits="userSpaceOnUse">
<stop stop-color="#228DE2"/>
<stop offset="0.505208" stop-color="#4252E6"/>
<stop offset="1" stop-color="#4428B6"/>
</linearGradient>
<clipPath id="clip0_0_638">
<rect width="40" height="40" fill="white" transform="translate(12 12)"/>
</clipPath>
</defs>
</svg>
