<svg width="64" height="64" viewBox="0 0 64 64" fill="none" xmlns="http://www.w3.org/2000/svg">
<path d="M0.82409 14.7853C1.4062 7.30598 7.30573 1.40644 14.7851 0.824334C20.3738 0.389366 26.8208 0.000244141 32 0.000244141C37.1792 0.000244141 43.6262 0.389366 49.2149 0.824334C56.6943 1.40644 62.5938 7.30598 63.1759 14.7853C63.6109 20.374 64 26.8211 64 32.0002C64 37.1794 63.6109 43.6264 63.1759 49.2152C62.5938 56.6945 56.6943 62.594 49.2149 63.1762C43.6262 63.6111 37.1792 64.0002 32 64.0002C26.8208 64.0002 20.3738 63.6111 14.7851 63.1762C7.30574 62.594 1.4062 56.6945 0.82409 49.2152C0.389122 43.6264 0 37.1794 0 32.0002C0 26.8211 0.389122 20.374 0.82409 14.7853Z" fill="url(#paint0_linear_0_662)"/>
<path fill-rule="evenodd" clip-rule="evenodd" d="M33.4834 47.3958C34.9356 48.4389 36.6804 49.0002 38.4706 49.0002C40.2608 49.0002 42.0056 48.4389 43.4578 47.3958C44.9101 46.3527 45.9962 44.8806 46.5623 43.1882C47.1284 41.4957 47.1458 39.6687 46.612 37.9658C46.0783 36.263 45.0204 34.7706 43.5882 33.7002V20.1002C43.5882 18.7476 43.0491 17.4504 42.0893 16.494C41.1296 15.5376 39.8279 15.0002 38.4706 15.0002C37.1133 15.0002 35.8116 15.5376 34.8519 16.494C33.8921 17.4504 33.3529 18.7476 33.3529 20.1002V33.7002C31.9208 34.7706 30.8629 36.263 30.3291 37.9658C29.7954 39.6687 29.8128 41.4957 30.3789 43.1882C30.945 44.8806 32.0311 46.3527 33.4834 47.3958ZM40.1765 20.1002V29.8182H36.7647V20.1002C36.7647 19.6494 36.9444 19.217 37.2643 18.8982C37.5843 18.5794 38.0182 18.4002 38.4706 18.4002C38.6975 18.4034 38.9215 18.4516 39.1295 18.5421C39.3374 18.6326 39.5252 18.7635 39.6818 18.9272C39.8413 19.0779 39.9676 19.26 40.0528 19.462C40.1379 19.6639 40.18 19.8812 40.1765 20.1002Z" fill="#F2F2F3"/>
<path d="M21.4118 20.1002V18.4002C21.4118 17.4614 22.1755 16.7002 23.1176 16.7002C24.0598 16.7002 24.8235 17.4614 24.8235 18.4002V20.1002H26.5294C27.4715 20.1002 28.2353 20.8614 28.2353 21.8002C28.2353 22.7391 27.4715 23.5002 26.5294 23.5002H24.8235V25.2002C24.8235 26.1391 24.0598 26.9002 23.1176 26.9002C22.1755 26.9002 21.4118 26.1391 21.4118 25.2002V23.5002H19.7059C18.7637 23.5002 18 22.7391 18 21.8002C18 20.8614 18.7637 20.1002 19.7059 20.1002H21.4118Z" fill="#F2F2F3"/>
<defs>
<linearGradient id="paint0_linear_0_662" x1="64" y1="64.0002" x2="-4.16383" y2="59.2065" gradientUnits="userSpaceOnUse">
<stop stop-color="#228DE2"/>
<stop offset="0.505208" stop-color="#4252E6"/>
<stop offset="1" stop-color="#4428B6"/>
</linearGradient>
</defs>
</svg>
