<svg width="182" height="159" viewBox="0 0 364 318" fill="none" xmlns="http://www.w3.org/2000/svg">
<path d="M60 40.4545C60 35.2329 64.2329 31 69.4545 31H180.545C185.767 31 190 35.2329 190 40.4545V151.545C190 156.767 185.767 161 180.545 161H69.4545C64.2329 161 60 156.767 60 151.545V40.4545Z" fill="#F2F2F3"/>
<path d="M70 49C70 44.5817 73.5817 41 78 41H172C176.418 41 180 44.5817 180 49V143C180 147.418 176.418 151 172 151H78C73.5817 151 70 147.418 70 143V49Z" fill="#37BA5B"/>
<path d="M119.898 119.055L103.875 98.3473L113.193 91.0619L120.78 100.867L146.409 73.6729L154.979 81.8343L119.898 119.055Z" fill="#F2F2F3"/>
<path d="M229 291C270.421 291 304 287.866 304 284C304 280.134 270.421 277 229 277C187.579 277 154 280.134 154 284C154 287.866 187.579 291 229 291Z" fill="#61646B"/>
<path d="M209.66 94.021C207.217 88.0895 206.82 82.4914 210.265 77.5188C210.326 75.8479 210.72 74.2064 211.424 72.6917C212.129 71.1769 213.128 69.8197 214.364 68.7006C215.6 67.5816 217.047 66.7234 218.619 66.177C220.191 65.6306 221.857 65.4071 223.516 65.5199L225.762 65.6724C228.08 65.8237 230.309 66.628 232.194 67.9933C234.079 69.3585 235.543 71.2295 236.42 73.3922C240.607 83.8314 240.739 97.7057 239.694 112.577H208.981C210.805 105.622 211.741 99.0949 209.66 94.021Z" fill="#2F3137"/>
<path d="M169.997 112.22L161.88 108.555C161.071 108.19 160.35 107.654 159.766 106.984C159.181 106.314 158.746 105.526 158.491 104.673C158.236 103.819 158.166 102.921 158.287 102.038C158.408 101.155 158.716 100.308 159.19 99.5557C159.715 98.7233 160.429 98.0282 161.274 97.5278C162.118 97.0274 163.069 96.736 164.048 96.6776C165.027 96.6191 166.005 96.7954 166.903 97.1919C167.8 97.5883 168.591 98.1935 169.21 98.9577L172.96 103.585L190.441 119.17L202.062 111.375L207.328 120.35L188.478 131.795L169.997 112.22Z" fill="#DFC89B"/>
<path d="M238.816 98.7579L213.368 119.927L211.905 117.869L218.925 105.226L222.143 103.756C222.914 100.473 220.946 96.0706 218.34 91.4075L230.626 89.6434C231.219 93.6485 233.919 96.7001 238.816 98.7579Z" fill="#DFC89B"/>
<path d="M269.53 244.885L265.289 251.206L231.504 231.948L236.184 208.721L269.53 244.885Z" fill="#2F3137"/>
<path d="M224.922 275.022L218.048 271.935L216.293 191.08L209.712 147.124L235.306 142.273L240.572 153.739C253.511 171.577 234.649 226.232 224.922 275.022Z" fill="#2F3137"/>
<path d="M225.476 273.923L226.887 277.009C227.152 277.589 227.279 278.223 227.257 278.86C227.235 279.498 227.066 280.122 226.762 280.682C226.458 281.242 226.028 281.724 225.507 282.087C224.985 282.451 224.386 282.688 223.758 282.778L205.111 285.456C204.194 285.587 203.261 285.381 202.484 284.874C201.706 284.368 201.138 283.596 200.884 282.701C200.65 281.876 200.695 280.997 201.014 280.203C201.333 279.408 201.906 278.742 202.643 278.312L218.309 270.43L225.476 273.923Z" fill="#2F3137"/>
<path d="M268.657 243.69L272.026 243.442C272.659 243.395 273.294 243.498 273.881 243.741C274.468 243.985 274.99 244.363 275.406 244.845C275.821 245.327 276.12 245.9 276.276 246.518C276.433 247.137 276.444 247.783 276.308 248.406L272.28 266.902C272.082 267.812 271.563 268.618 270.819 269.173C270.075 269.727 269.156 269.992 268.233 269.919C267.383 269.851 266.58 269.5 265.95 268.922C265.321 268.344 264.902 267.571 264.758 266.726L262.894 249.218L268.657 243.69Z" fill="#2F3137"/>
<path d="M222.729 95.5238C229.191 95.5238 234.429 90.2583 234.429 83.763C234.429 77.2678 229.191 72.0023 222.729 72.0023C216.267 72.0023 211.028 77.2678 211.028 83.763C211.028 90.2583 216.267 95.5238 222.729 95.5238Z" fill="#DFC89B"/>
<path d="M236.476 154.327L230.958 161.343C230.408 162.042 229.715 162.614 228.926 163.02C228.137 163.426 227.27 163.657 226.384 163.698C225.499 163.738 224.615 163.586 223.793 163.253C222.97 162.919 222.229 162.412 221.619 161.766C220.944 161.051 220.448 160.185 220.172 159.239C219.895 158.294 219.847 157.296 220.029 156.328C220.212 155.359 220.621 154.449 221.223 153.671C221.825 152.893 222.602 152.27 223.49 151.853L228.871 149.329L248.177 136.098L243.497 122.867L253.442 119.927L259.877 141.097L236.476 154.327Z" fill="#DFC89B"/>
<path d="M255.782 121.397L242.326 124.632L241.702 121.022L237.646 97.5819L239.973 97.9473C242.115 98.2836 244.131 99.1767 245.823 100.538C247.516 101.899 248.824 103.681 249.62 105.707L255.782 121.397Z" fill="url(#paint0_linear)"/>
<path d="M200.074 110.666L206.482 122.99L209.981 120.464C209.981 120.464 209.233 127.366 209 132C208.665 138.655 209.273 149.329 209.273 149.329L234.721 144.037L241.702 121.022L237.646 97.5819L236.476 97.2878L225.026 99.4943L200.074 110.666Z" fill="url(#paint1_linear)"/>
<path d="M236.173 109.052C236.121 110.011 235.45 110.802 234.517 111.018C232.471 111.493 228.896 112.246 226.839 112.242C224.099 112.236 220.436 111.375 218.229 110.78C217.126 110.483 216.447 109.367 216.81 108.282C217.895 105.03 222.517 103.599 224.598 99.5188C228.173 92.5078 231.15 84.3233 225.073 79.3655C218.131 77.758 215.442 74.839 216.301 70.8262L228.728 68.7681C237.337 76.4746 236.534 102.362 236.173 109.052Z" fill="#2F3137"/>
<defs>
<linearGradient id="paint0_linear" x1="255.782" y1="149.329" x2="196.492" y2="144.866" gradientUnits="userSpaceOnUse">
<stop stop-color="#228DE2"/>
<stop offset="0.505208" stop-color="#4252E6"/>
<stop offset="1" stop-color="#4428B6"/>
</linearGradient>
<linearGradient id="paint1_linear" x1="255.782" y1="149.329" x2="196.492" y2="144.866" gradientUnits="userSpaceOnUse">
<stop stop-color="#228DE2"/>
<stop offset="0.505208" stop-color="#4252E6"/>
<stop offset="1" stop-color="#4428B6"/>
</linearGradient>
</defs>
</svg>
