<svg width="182" height="159" viewBox="0 0 182 159" fill="none" xmlns="http://www.w3.org/2000/svg">
<path d="M30 20.2272C30 17.6164 32.1164 15.5 34.7272 15.5H90.2725C92.8835 15.5 95 17.6164 95 20.2272V75.7725C95 78.3835 92.8835 80.5 90.2725 80.5H34.7272C32.1164 80.5 30 78.3835 30 75.7725V20.2272Z" fill="#F2F2F3"/>
<path d="M35 24.5C35 22.2908 36.7908 20.5 39 20.5H86C88.209 20.5 90 22.2908 90 24.5V71.5C90 73.709 88.209 75.5 86 75.5H39C36.7908 75.5 35 73.709 35 71.5V24.5Z" fill="#FF3838"/>
<path d="M114.5 145.5C135.211 145.5 152 143.933 152 142C152 140.067 135.211 138.5 114.5 138.5C93.7895 138.5 77 140.067 77 142C77 143.933 93.7895 145.5 114.5 145.5Z" fill="#61646B"/>
<path d="M104.83 47.0109C103.609 44.0451 103.41 41.2461 105.133 38.7598C105.163 37.9243 105.36 37.1036 105.712 36.3462C106.065 35.5888 106.564 34.9102 107.182 34.3507C107.8 33.7912 108.524 33.3621 109.31 33.0889C110.096 32.8157 110.929 32.7039 111.758 32.7603L112.881 32.8366C114.04 32.9122 115.155 33.3144 116.097 33.997C117.04 34.6796 117.772 35.6151 118.21 36.6965C120.304 41.9161 120.37 48.8532 119.847 56.2889H104.491C105.403 52.8114 105.871 49.5478 104.83 47.0109Z" fill="#2F3137"/>
<path d="M84.9986 56.1097L80.9401 54.2772C80.5356 54.0947 80.1751 53.8267 79.8831 53.4917C79.5906 53.1567 79.3731 52.7627 79.2456 52.3362C79.1181 51.9092 79.0831 51.4602 79.1436 51.0187C79.2041 50.5772 79.3581 50.1537 79.5951 49.7775C79.8576 49.3613 80.2146 49.0138 80.6371 48.7636C81.0591 48.5134 81.5346 48.3677 82.0241 48.3385C82.5136 48.3092 83.0026 48.3974 83.4516 48.5956C83.9001 48.7938 84.2956 49.0964 84.6051 49.4785L86.4801 51.7922L95.2206 59.5847L101.031 55.6872L103.664 60.1747L94.2391 65.8972L84.9986 56.1097Z" fill="#DFC89B"/>
<path d="M119.408 49.3785L106.684 59.9631L105.952 58.9341L109.462 52.6126L111.071 51.8776C111.457 50.2361 110.473 48.0349 109.17 45.7033L115.313 44.8213C115.609 46.8238 116.959 48.3496 119.408 49.3785Z" fill="#DFC89B"/>
<path d="M134.765 122.442L132.644 125.603L115.752 115.974L118.092 104.36L134.765 122.442Z" fill="#2F3137"/>
<path d="M112.461 137.511L109.024 135.968L108.146 95.5402L104.856 73.5622L117.653 71.1367L120.286 76.8697C126.755 85.7887 117.324 113.116 112.461 137.511Z" fill="#2F3137"/>
<path d="M112.738 136.961L113.443 138.504C113.576 138.794 113.639 139.111 113.628 139.43C113.617 139.749 113.533 140.061 113.381 140.341C113.229 140.621 113.014 140.862 112.753 141.043C112.492 141.225 112.193 141.344 111.879 141.389L102.555 142.728C102.097 142.793 101.63 142.69 101.242 142.437C100.853 142.184 100.569 141.798 100.442 141.35C100.325 140.938 100.347 140.498 100.507 140.101C100.666 139.704 100.953 139.371 101.321 139.156L109.154 135.215L112.738 136.961Z" fill="#2F3137"/>
<path d="M134.329 121.845L136.013 121.721C136.33 121.698 136.647 121.749 136.941 121.871C137.234 121.993 137.495 122.182 137.703 122.423C137.911 122.664 138.06 122.95 138.138 123.259C138.217 123.569 138.222 123.892 138.154 124.203L136.14 133.451C136.041 133.906 135.782 134.309 135.41 134.587C135.038 134.864 134.578 134.996 134.117 134.96C133.692 134.926 133.29 134.75 132.975 134.461C132.661 134.172 132.451 133.786 132.379 133.363L131.447 124.609L134.329 121.845Z" fill="#2F3137"/>
<path d="M111.364 47.7617C114.595 47.7617 117.214 45.129 117.214 41.8813C117.214 38.6337 114.595 36.001 111.364 36.001C108.133 36.001 105.514 38.6337 105.514 41.8813C105.514 45.129 108.133 47.7617 111.364 47.7617Z" fill="#DFC89B"/>
<path d="M118.238 77.1639L115.479 80.6719C115.204 81.0214 114.857 81.3074 114.463 81.5104C114.068 81.7134 113.635 81.8289 113.192 81.8494C112.749 81.8694 112.307 81.7934 111.896 81.6269C111.485 81.4599 111.114 81.2064 110.809 80.8834C110.472 80.5259 110.224 80.0929 110.086 79.6199C109.947 79.1474 109.923 78.6484 110.014 78.1644C110.106 77.6799 110.31 77.2249 110.611 76.8359C110.912 76.4469 111.301 76.1354 111.745 75.9269L114.435 74.6649L124.088 68.0494L121.748 61.4339L126.721 59.9639L129.938 70.5489L118.238 77.1639Z" fill="#DFC89B"/>
<path d="M127.891 60.6986L121.163 62.3161L120.851 60.5111L118.823 48.791L119.987 48.9737C121.058 49.1419 122.065 49.5884 122.911 50.2691C123.758 50.9496 124.412 51.8406 124.81 52.8536L127.891 60.6986Z" fill="url(#paint0_linear)"/>
<path d="M100.037 55.3327L103.241 61.4947L104.991 60.2317C104.991 60.2317 104.617 63.6827 104.5 65.9997C104.333 69.3272 104.637 74.6642 104.637 74.6642L117.361 72.0182L120.851 60.5107L118.823 48.7906L118.238 48.6436L112.513 49.7468L100.037 55.3327Z" fill="url(#paint1_linear)"/>
<path d="M118.087 54.5257C118.061 55.0052 117.725 55.4007 117.259 55.5087C116.236 55.7462 114.448 56.1227 113.42 56.1207C112.05 56.1177 110.218 55.6872 109.115 55.3897C108.563 55.2412 108.224 54.6832 108.405 54.1407C108.948 52.5147 111.259 51.7992 112.299 49.7591C114.087 46.2536 115.575 42.1614 112.537 39.6825C109.066 38.8787 107.721 37.4192 108.151 35.4128L114.364 34.3838C118.669 38.237 118.267 51.1807 118.087 54.5257Z" fill="#2F3137"/>
<rect x="52.8889" y="35" width="30.7993" height="5.49987" rx="1" transform="rotate(45 52.8889 35)" fill="white"/>
<rect x="74.6675" y="38.8887" width="30.7993" height="5.49987" rx="1" transform="rotate(135 74.6675 38.8887)" fill="white"/>
<defs>
<linearGradient id="paint0_linear" x1="127.891" y1="74.6646" x2="98.246" y2="72.4331" gradientUnits="userSpaceOnUse">
<stop stop-color="#228DE2"/>
<stop offset="0.505208" stop-color="#4252E6"/>
<stop offset="1" stop-color="#4428B6"/>
</linearGradient>
<linearGradient id="paint1_linear" x1="127.891" y1="74.6642" x2="98.2461" y2="72.4327" gradientUnits="userSpaceOnUse">
<stop stop-color="#228DE2"/>
<stop offset="0.505208" stop-color="#4252E6"/>
<stop offset="1" stop-color="#4428B6"/>
</linearGradient>
</defs>
</svg>
