<svg width="94" height="94" viewBox="0 0 94 94" fill="none" xmlns="http://www.w3.org/2000/svg">
<path fill-rule="evenodd" clip-rule="evenodd" d="M47 0.5L64.3267 17.4146C65.3355 18.3994 65.3355 19.9962 64.3267 20.981L60.6733 24.5475C59.6645 25.5324 58.0288 25.5324 57.0199 24.5475L52.1667 19.8097V58.0707C52.1667 59.4635 51.0101 60.5926 49.5833 60.5926H44.4167C42.9899 60.5926 41.8333 59.4635 41.8333 58.0707V19.8097L36.9801 24.5475C35.9712 25.5324 34.3355 25.5324 33.3267 24.5475L29.6733 20.981C28.6645 19.9962 28.6645 18.3994 29.6733 17.4146L47 0.5ZM0.5 60.7154C0.5 59.3226 1.6566 58.1935 3.08333 58.1935H8.25C9.67673 58.1935 10.8333 59.3226 10.8333 60.7154V83.4124H83.1667V60.7154C83.1667 59.3226 84.3233 58.1935 85.75 58.1935H90.9167C92.3434 58.1935 93.5 59.3226 93.5 60.7154V90.9781C93.5 92.3709 92.3434 93.5 90.9167 93.5H3.08333C1.6566 93.5 0.5 92.3709 0.5 90.9781V60.7154Z" fill="#767C89"/>
</svg>
