<svg width="24" height="24" viewBox="0 0 24 24" fill="none" xmlns="http://www.w3.org/2000/svg">
<path d="M13.8334 5.65432V6.48147L15.6667 6.48147V5.65432C15.6667 4.74196 14.8444 4 13.8334 4H10.1667C9.15561 4 8.33337 4.74196 8.33337 5.65432V6.48147H4.52083C3.1275 6.48147 2 7.49887 2 8.75615V9.93266C2 10.361 2.27682 10.741 2.68662 10.8753L11.6866 13.8232C11.8901 13.8899 12.1099 13.8899 12.3134 13.8232L21.3134 10.8753C21.7232 10.741 22 10.361 22 9.93266V8.75615C22 7.49887 20.8725 6.48147 19.4792 6.48147H15.6667L13.8334 6.48147L10.1667 6.48147V5.65432H13.8334Z" fill="#767C89"/>
<path d="M12.1982 14.9687C12.1353 14.9873 12.0626 15.0566 12 15.0371L3.28735 12.4426C2.64574 12.2516 2 12.7285 2 13.3934V17.8962C2 19.059 3.1275 20 4.52083 20H19.4792C20.8725 20 22 19.059 22 17.8962V13.3921C22 12.7276 21.3549 12.2508 20.7135 12.4411L12.1982 14.9687Z" fill="#767C89"/>
</svg>
