<svg width="236" height="106" viewBox="0 0 236 106" fill="none" xmlns="http://www.w3.org/2000/svg">
<path fill-rule="evenodd" clip-rule="evenodd" d="M227.283 181.132C227.022 181.798 226.751 182.462 226.471 183.122C226.178 183.812 225.877 184.495 225.566 185.171C225.307 185.837 225.037 186.5 224.757 187.16C224.464 187.851 224.161 188.534 223.848 189.21C223.591 189.876 223.323 190.539 223.043 191.198C222.75 191.89 222.445 192.573 222.13 193.248C221.876 193.915 221.609 194.578 221.329 195.237C221.035 195.929 220.729 196.612 220.412 197.287C220.16 197.954 219.894 198.617 219.615 199.275C219.321 199.968 219.013 200.652 218.692 201.326C218.444 201.994 218.18 202.656 217.901 203.313C217.606 204.008 217.296 204.691 216.972 205.365C216.727 206.033 216.466 206.695 216.187 207.351C215.892 208.047 215.579 208.731 215.25 209.403C215.01 210.072 214.751 210.734 214.473 211.389C199.327 247.073 133.526 247.938 67.5019 213.321C1.47766 178.704 -39.7676 121.714 -24.6219 86.0306C-24.3439 85.3757 -24.0488 84.7325 -23.737 84.101C-23.4796 83.3913 -23.2032 82.6884 -22.9079 81.9925C-22.6294 81.3365 -22.3359 80.691 -22.0275 80.0561C-21.7665 79.3496 -21.4887 78.6489 -21.1939 77.9543C-20.9151 77.2974 -20.6228 76.65 -20.3172 76.0122C-20.0533 75.3083 -19.7742 74.6095 -19.4799 73.9161C-19.2007 73.2583 -18.9095 72.6093 -18.6064 71.969C-18.3399 71.2674 -18.0598 70.5703 -17.7659 69.8779C-17.4864 69.2194 -17.1961 68.5689 -16.895 67.9263C-16.6264 67.2267 -16.3454 66.5311 -16.0519 65.8397C-15.7722 65.1806 -15.4825 64.5287 -15.1832 63.8842C-14.9128 63.1864 -14.6311 62.4921 -14.338 61.8015C-14.0579 61.1418 -13.7689 60.4887 -13.4711 59.8425C-13.1991 59.1462 -12.9167 58.4531 -12.624 57.7634C-12.3437 57.103 -12.0552 56.4489 -11.7587 55.8011C-11.4853 55.1063 -11.2025 54.4142 -10.91 53.7252C11.8086 0.199732 83.7489 -15.1287 149.773 19.4881C215.797 54.1049 250.904 125.558 228.185 179.084C227.893 179.773 227.592 180.456 227.283 181.132ZM197.992 148.112C181.446 125.25 154.774 102.454 121.879 85.2067C88.9844 67.9597 56.1932 59.5798 29.797 59.9267C10.0728 60.1859 -5.86274 65.3004 -15.7235 74.9935C-18.8567 96.035 -14.522 118.643 -4.01578 140.027C10.0507 168.657 35.1482 195.004 67.9721 212.213C100.796 229.423 135.051 234.195 163.876 228.053C185.406 223.466 203.86 212.807 216.478 196.738C216.938 182.116 210.355 165.195 197.992 148.112ZM218.366 194.233C218.115 194.58 217.861 194.925 217.605 195.267C217.583 160.185 179.129 113.869 122.349 84.099C65.5696 54.3291 8.95462 50.8004 -15.4192 73.0915C-15.3443 72.6541 -15.2662 72.2175 -15.1847 71.7816C-5.1122 60.2445 11.7802 53.8743 32.7497 53.0324C59.4472 51.9604 92.4208 59.8878 125.307 77.1303C158.194 94.3728 184.667 117.614 200.901 141.195C213.652 159.717 219.971 178.257 218.366 194.233ZM220.058 191.797C219.913 192.015 219.766 192.233 219.618 192.449C221.903 155.297 183.656 106.369 125.777 76.0227C67.8989 45.6767 9.60207 43.9867 -14.7425 69.5726C-14.686 69.3083 -14.6283 69.0442 -14.5693 68.7804C-4.30915 55.316 13.5245 47.6131 35.7018 46.1374C62.7011 44.3407 95.8573 51.8159 128.735 69.0539C161.613 86.292 187.889 109.977 203.811 134.278C216.89 154.239 222.883 174.434 220.058 191.797ZM221.578 189.428C221.546 189.48 221.514 189.533 221.482 189.585C226.014 150.325 188.067 98.8077 129.205 67.9463C70.3438 37.0849 10.4396 37.2981 -13.9385 66.1526C-13.9228 66.0918 -13.9072 66.0311 -13.8914 65.9703C-3.46129 50.5048 15.3016 41.398 38.6531 39.2417C65.9551 36.7207 99.294 43.7441 132.163 60.9776C165.032 78.211 191.111 102.34 206.723 127.361C220.076 148.762 225.684 170.647 221.578 189.428ZM173.947 226.665C188.048 222.229 200.544 214.988 210.528 205.135C200.823 215.116 188.303 222.366 173.947 226.665ZM-2.7002 40.888C9.87142 22.1226 29.7857 9.78732 53.399 4.756C82.2244 -1.38588 116.479 3.38603 149.303 20.5957C182.127 37.8054 207.224 64.1522 221.291 92.7825C232.814 116.236 236.913 141.162 231.878 163.878C239.162 115.555 204.416 58.0111 146.345 27.5645C88.2746 -2.88217 26.2212 3.90919 -2.7002 40.888ZM-9.45673 130.506C-15.6006 115.459 -18.5292 100.109 -17.7703 85.4374C-18.2624 100.267 -15.3438 115.589 -9.45673 130.506ZM142.917 35.6408C201.207 66.2022 236.594 122.656 229.755 169.227C234.667 147.217 230.28 122.808 218.376 99.6976C204.001 71.7903 178.708 45.8867 145.875 28.6721C113.042 11.4575 78.9706 6.23628 50.4512 11.654C26.8338 16.1405 7.09555 27.9 -5.06409 46.1097C22.9236 10.6281 84.6278 5.07944 142.917 35.6408ZM171.919 228.511C187.066 224.359 200.347 217.013 210.634 206.687C200.693 217.167 187.382 224.525 171.919 228.511ZM-18.9155 86.3332C-19.8706 101.524 -16.5148 117.621 -9.44873 133.419C-16.1982 117.786 -19.543 101.724 -18.9155 86.3332ZM170.073 230.22C186.141 226.436 200.083 219.104 210.549 208.45C200.504 219.285 186.526 226.633 170.073 230.22ZM-7.40658 51.291C4.32527 33.6516 23.8793 22.4816 47.5028 18.5516C75.7168 13.858 109.605 19.529 142.447 36.7484C175.289 53.9679 200.778 79.4281 215.461 106.613C227.756 129.375 232.435 153.25 227.647 174.531C234.033 129.736 197.997 74.393 139.489 43.7172C80.9816 13.0414 19.636 17.3268 -7.40658 51.291ZM-9.46149 136.089C-17.4342 119.696 -21.221 103.033 -20.0857 87.5267C-20.8273 103.28 -17.0517 119.901 -9.46149 136.089ZM136.061 51.7936C194.786 82.5833 231.48 136.794 225.554 179.79C230.218 159.263 225.242 135.936 212.548 113.529C197.555 87.0658 171.871 62.049 139.019 44.8248C106.168 27.6007 72.4629 21.4793 44.5536 25.4488C20.9217 28.81 1.56037 39.3769 -9.727 56.4312C16.3595 24.0052 77.3363 21.0038 136.061 51.7936ZM168.379 231.818C185.261 228.469 199.76 221.254 210.303 210.399C200.265 221.463 185.724 228.7 168.379 231.818ZM-21.2821 88.9776C-22.5809 104.623 -18.3595 121.698 -9.49409 138.558C-17.9039 121.948 -22.1154 104.923 -21.2821 88.9776ZM166.816 233.324C184.419 230.465 199.386 223.458 209.917 212.514C199.983 223.695 184.97 230.734 166.816 233.324ZM-12.0249 61.5295C-1.19962 45.0752 17.9602 35.1251 41.6037 32.3455C69.209 29.1002 102.731 35.6723 135.591 52.9012C168.452 70.1301 194.333 94.7032 209.635 120.445C222.741 142.492 228.016 165.254 223.475 185.003C228.933 143.828 191.574 90.7728 132.633 59.8699C73.6926 28.967 13.0949 30.6632 -12.0249 61.5295ZM-9.54552 140.857C-19.2921 123.638 -23.9515 106.285 -22.5053 90.654C-23.4074 106.645 -18.7548 123.94 -9.54552 140.857ZM165.365 234.754C183.609 232.43 198.964 225.71 209.407 214.781C199.663 225.978 184.26 232.74 165.365 234.754ZM-23.7552 92.5325C-25.3336 108.011 -20.2333 125.523 -9.61512 143.011C-19.6041 125.884 -24.7031 108.44 -23.7552 92.5325ZM164.013 236.118C182.826 234.368 198.498 228.008 208.787 217.187C199.311 228.309 183.59 234.724 164.013 236.118ZM-9.70299 145.038C-21.1851 127.359 -26.728 109.796 -25.0318 94.5945C-26.0019 110.302 -20.4518 127.788 -9.70299 145.038ZM162.751 237.427C182.065 236.283 197.988 230.349 208.067 219.723C198.93 230.685 182.959 236.691 162.751 237.427ZM-26.3348 96.8249C-28.1357 111.634 -22.1496 129.152 -9.80902 146.953C-21.2976 129.658 -27.3031 112.227 -26.3348 96.8249Z" fill="url(#paint0_linear_2503_12366)" fill-opacity="0.11"/>
<defs>
<linearGradient id="paint0_linear_2503_12366" x1="148.015" y1="51.9302" x2="-7.12211" y2="37.9776" gradientUnits="userSpaceOnUse">
<stop stop-color="#797979"/>
<stop offset="1" stop-color="#2F3137"/>
</linearGradient>
</defs>
</svg>
