<svg width="177" height="83" viewBox="0 0 177 83" fill="none" xmlns="http://www.w3.org/2000/svg">
<path fill-rule="evenodd" clip-rule="evenodd" d="M139.567 72.7748C140.028 72.4982 140.486 72.2133 140.941 71.9202C141.417 71.614 141.887 71.3003 142.352 70.9792C142.813 70.7043 143.271 70.4204 143.726 70.1275C144.202 69.821 144.672 69.5062 145.136 69.1833C145.597 68.9103 146.055 68.6275 146.51 68.3349C146.987 68.0279 147.457 67.7119 147.92 67.3869C148.382 67.1161 148.84 66.8345 149.294 66.5422C149.771 66.2349 150.242 65.9174 150.705 65.59C151.167 65.3217 151.625 65.0415 152.078 64.7496C152.556 64.4417 153.027 64.1226 153.489 63.7924C153.952 63.527 154.41 63.2485 154.862 62.9569C155.341 62.6486 155.812 62.3275 156.273 61.994C156.736 61.732 157.194 61.4555 157.647 61.1642C158.126 60.8553 158.597 60.5321 159.057 60.1947C159.521 59.9367 159.979 59.6624 160.431 59.3716C185.034 43.5307 181.29 -15.0665 152.07 -71.5088C122.849 -127.951 79.2165 -160.865 54.6136 -145.024C54.162 -144.733 53.72 -144.428 53.2875 -144.109C52.7953 -143.833 52.3092 -143.541 51.8294 -143.232C51.3771 -142.94 50.9334 -142.636 50.4982 -142.32C50.0085 -142.041 49.524 -141.747 49.0452 -141.439C48.5922 -141.147 48.1471 -140.844 47.7096 -140.53C47.222 -140.249 46.739 -139.954 46.2609 -139.646C45.8074 -139.354 45.361 -139.052 44.9216 -138.74C44.4358 -138.456 43.9541 -138.161 43.4767 -137.854C43.0227 -137.561 42.5751 -137.26 42.134 -136.949C41.6498 -136.664 41.1692 -136.368 40.6925 -136.061C40.238 -135.768 39.7895 -135.467 39.3468 -135.158C38.8639 -134.872 38.3844 -134.575 37.9083 -134.268C37.4534 -133.975 37.0039 -133.675 36.5599 -133.367C36.0783 -133.079 35.5997 -132.782 35.1241 -132.476C34.6688 -132.183 34.2185 -131.882 33.7733 -131.576C33.2928 -131.286 32.8149 -130.989 32.3399 -130.683C-4.56446 -106.922 -10.7933 -41.9037 18.4273 14.5387C47.648 70.981 101.253 97.4742 138.157 73.7128C138.632 73.4069 139.102 73.0942 139.567 72.7748ZM113.929 48.9055C96.4254 35.7021 78.2969 13.4854 63.7385 -14.6355C49.18 -42.7564 40.9916 -71.3732 39.4899 -94.8795C38.3678 -112.444 40.9812 -126.96 47.2832 -136.376C62.1753 -140.559 78.6865 -138.202 94.7289 -130.273C116.207 -119.658 136.779 -99.0774 151.306 -71.0171C165.833 -42.9569 171.529 -12.7988 169.033 13.2529C167.169 32.7108 160.744 49.8358 150.05 62.127C139.587 63.5058 127.008 58.7717 113.929 48.9055ZM148.378 63.9724C148.61 63.7262 148.84 63.4778 149.069 63.2273C123.892 65.5343 88.1041 34.3957 62.9748 -14.1438C37.8455 -62.6834 31.5585 -112.817 45.9385 -135.979C45.6296 -135.883 45.3215 -135.785 45.0141 -135.684C37.4028 -125.957 33.9517 -110.507 34.7383 -91.7954C35.7396 -67.973 43.6153 -39.1639 58.17 -11.0502C72.7247 17.0635 91.1589 39.0744 109.158 51.9527C123.295 62.0679 137.019 66.4603 148.378 63.9724ZM146.741 65.6398C146.888 65.4957 147.035 65.3508 147.18 65.2052C120.67 69.7013 83.0219 38.9202 57.4064 -10.5585C31.7908 -60.0373 26.7117 -111.789 43.4582 -135.144C43.2722 -135.076 43.0865 -135.007 42.9012 -134.937C33.9193 -124.916 29.5742 -108.54 29.986 -88.7118C30.4874 -64.5728 38.0507 -35.5713 52.6016 -7.4649C67.1525 20.6415 85.8923 42.4468 104.387 55.0006C119.579 65.3122 134.469 69.304 146.741 65.6398ZM145.142 67.1492C145.178 67.1172 145.213 67.085 145.248 67.0529C117.375 73.689 77.8885 43.3459 51.8379 -6.97321C25.7873 -57.2924 21.9674 -110.6 41.0572 -134.201C41.0146 -134.184 40.9721 -134.166 40.9295 -134.148C30.5229 -123.843 25.232 -106.546 25.2333 -85.6289C25.2348 -61.1726 32.4861 -31.9786 47.0332 -3.87959C61.5802 24.2194 80.6255 45.8196 99.6166 58.0493C115.86 68.5093 131.937 72.0476 145.142 67.1492ZM168.706 22.3046C166.457 35.1441 162.089 46.741 155.681 56.2767C162.2 46.9808 166.572 35.361 168.706 22.3046ZM23.6721 -122.528C11.0394 -110.099 3.50808 -91.5642 1.46356 -70.2231C-1.03225 -44.1714 4.66401 -14.0133 19.191 14.047C33.718 42.1072 54.2895 62.6877 75.7682 73.3031C93.3631 81.9991 111.522 83.9927 127.49 78.0066C93.2956 87.692 49.6963 60.5963 23.9958 10.9534C-1.70475 -38.6896 -0.946604 -94.3455 23.6721 -122.528ZM87.5358 -134.482C76.3301 -138.95 65.1207 -140.538 54.6422 -138.889C65.2514 -140.311 76.441 -138.73 87.5358 -134.482ZM29.5642 7.36806C55.3616 57.198 98.2213 84.9361 131.188 75.7636C115.718 81.5927 97.9115 79.3086 80.5373 70.251C59.557 59.3134 39.2906 38.5298 24.7595 10.4616C10.2283 -17.6065 4.22179 -47.5716 6.21822 -73.303C7.87152 -94.6118 15.0013 -112.952 27.2625 -124.977C3.65633 -97.7248 3.76681 -42.462 29.5642 7.36806ZM169.896 20.3776C167.92 34.1289 163.53 46.431 156.802 56.2681C163.663 46.7293 168.061 34.3991 169.896 20.3776ZM55.2091 -139.968C66.0471 -141.825 77.8209 -139.907 89.6268 -134.668C77.9606 -139.636 66.212 -141.547 55.2091 -139.968ZM171 18.6226C169.349 33.1678 165.013 46.0573 158.062 56.0755C165.17 46.4205 169.517 33.4976 171 18.6226ZM30.8254 -127.405C18.9451 -115.798 12.226 -97.6607 10.9726 -76.3836C9.47549 -50.9718 15.7927 -21.1997 30.3279 6.87636C44.863 34.9524 64.8244 55.9396 85.3067 67.1996C102.456 76.6276 119.9 79.2069 134.854 73.5364C103.132 82.1886 61.0266 53.7993 35.1326 3.78273C9.23864 -46.2339 8.24544 -101.094 30.8254 -127.405ZM91.5423 -134.857C79.2492 -140.862 67.0403 -143.126 55.988 -141.088C67.2435 -142.792 79.4216 -140.536 91.5423 -134.857ZM40.7011 0.197418C66.6912 50.3998 108.027 79.4488 138.489 71.3251C124.068 76.8356 106.998 73.9564 90.0764 64.1488C70.0916 52.566 50.4355 31.3748 35.8963 3.29103C21.3571 -24.7928 14.7289 -54.3721 15.7265 -79.4647C16.5713 -100.712 22.8703 -118.637 34.3602 -129.81C12.8207 -104.452 14.7109 -50.0049 40.7011 0.197418ZM172.034 17.0095C170.75 32.2501 166.534 45.6282 159.444 55.7271C166.717 46.0632 170.947 32.647 172.034 17.0095ZM56.9499 -142.249C68.0914 -144.442 80.6247 -141.818 93.3119 -135.05C80.8345 -141.43 68.3377 -144.047 56.9499 -142.249ZM173.011 15.5185C172.127 31.3691 168.091 45.1493 160.936 55.2433C168.301 45.6641 172.356 31.8417 173.011 15.5185ZM37.8665 -132.192C26.7765 -121.471 20.9068 -103.765 20.4801 -82.5465C19.982 -57.7723 26.9216 -28.3857 41.4647 -0.294281C56.0079 27.7972 75.3586 49.1926 94.8464 61.0987C111.537 71.296 128.221 74.4798 142.093 69.13C112.906 76.7162 72.3551 46.9989 46.2695 -3.38789C20.1838 -53.7747 17.3821 -107.798 37.8665 -132.192ZM94.9584 -135.248C81.9548 -142.777 69.193 -145.771 58.0718 -143.448C69.4878 -145.311 82.2071 -142.319 94.9584 -135.248ZM173.941 14.1329C173.483 30.5182 169.679 44.6245 162.529 54.6396C169.918 45.2282 173.749 31.0767 173.941 14.1329ZM59.337 -144.684C70.34 -147.115 83.2451 -143.739 96.4992 -135.453C83.546 -143.203 70.6895 -146.583 59.337 -144.684ZM174.83 12.84C174.822 29.6929 171.297 44.0568 164.215 53.9285C171.567 44.7602 175.128 30.3491 174.83 12.84ZM97.9477 -135.665C84.4998 -144.708 71.5281 -148.474 60.732 -145.957C71.9394 -147.862 84.8563 -144.084 97.9477 -135.665ZM175.686 11.6301C176.146 28.8891 172.943 43.4484 165.987 53.1199C173.247 44.2639 176.498 29.6573 175.686 11.6301ZM62.2462 -147.264C72.7538 -149.848 85.722 -145.685 99.3151 -135.887C86.1424 -144.96 73.235 -149.147 62.2462 -147.264Z" fill="url(#paint0_linear_2503_12365)" fill-opacity="0.7"/>
<defs>
<linearGradient id="paint0_linear_2503_12365" x1="57.6457" y1="-103.766" x2="33.2866" y2="2.49664" gradientUnits="userSpaceOnUse">
<stop stop-color="#2F3137"/>
<stop offset="1" stop-color="#A8A8A8"/>
</linearGradient>
</defs>
</svg>
