<svg width="24" height="24" viewBox="0 0 24 24" fill="none" xmlns="http://www.w3.org/2000/svg">
<path d="M19.373 7.2381H7.06387L6.60743 4.66471C6.53716 4.27979 6.20056 4 5.80776 4H3.81277C3.36389 4 3 4.36244 3 4.80952C3 5.25661 3.36389 5.61905 3.81277 5.61905H5.12944L5.77537 9.15746L6.82119 14.8134C6.96172 15.5833 7.63491 16.1429 8.42052 16.1429H17.3042C17.9877 16.1429 18.5982 15.7169 18.8318 15.0771L20.9007 9.41044C21.2862 8.35453 20.5011 7.2381 19.373 7.2381Z" fill="#767C89"/>
<path d="M10.315 19.381C10.315 20.2751 9.58719 21 8.68942 21C7.79166 21 7.06387 20.2751 7.06387 19.381C7.06387 18.4868 7.79166 17.7619 8.68942 17.7619C9.58719 17.7619 10.315 18.4868 10.315 19.381Z" fill="#767C89"/>
<path d="M17.6299 19.381C17.6299 20.2751 16.9022 21 16.0044 21C15.1066 21 14.3788 20.2751 14.3788 19.381C14.3788 18.4868 15.1066 17.7619 16.0044 17.7619C16.9022 17.7619 17.6299 18.4868 17.6299 19.381Z" fill="#767C89"/>
</svg>
