<svg width="24" height="24" viewBox="0 0 24 24" fill="none" xmlns="http://www.w3.org/2000/svg">
<path d="M2 5C2 4.44772 2.44772 4 3 4H21C21.5523 4 22 4.44772 22 5V6C22 6.55228 21.5523 7 21 7H3C2.44772 7 2 6.55228 2 6V5Z" fill="#767C89"/>
<path d="M2 11.5C2 10.9477 2.44772 10.5 3 10.5H21C21.5523 10.5 22 10.9477 22 11.5V12.5C22 13.0523 21.5523 13.5 21 13.5H3C2.44772 13.5 2 13.0523 2 12.5V11.5Z" fill="#767C89"/>
<path d="M2 18C2 17.4477 2.44772 17 3 17H21C21.5523 17 22 17.4477 22 18V19C22 19.5523 21.5523 20 21 20H3C2.44772 20 2 19.5523 2 19V18Z" fill="#767C89"/>
</svg>
