<svg width="18" height="17" viewBox="0 0 18 17" fill="none" xmlns="http://www.w3.org/2000/svg">
<path d="M16.373 3.2381H4.06387L3.60743 0.664712C3.53716 0.279791 3.20056 0 2.80776 0H0.812775C0.363892 0 0 0.362436 0 0.809524C0 1.25661 0.363892 1.61905 0.812775 1.61905H2.12944L2.77537 5.15746L3.82119 10.8134C3.96172 11.5833 4.63491 12.1429 5.42052 12.1429H14.3042C14.9877 12.1429 15.5982 11.7169 15.8318 11.0771L17.9007 5.41044C18.2862 4.35453 17.5011 3.2381 16.373 3.2381Z" fill="white"/>
<path d="M7.31497 15.381C7.31497 16.2751 6.58719 17 5.68942 17C4.79166 17 4.06387 16.2751 4.06387 15.381C4.06387 14.4868 4.79166 13.7619 5.68942 13.7619C6.58719 13.7619 7.31497 14.4868 7.31497 15.381Z" fill="white"/>
<path d="M14.6299 15.381C14.6299 16.2751 13.9022 17 13.0044 17C12.1066 17 11.3788 16.2751 11.3788 15.381C11.3788 14.4868 12.1066 13.7619 13.0044 13.7619C13.9022 13.7619 14.6299 14.4868 14.6299 15.381Z" fill="white"/>
</svg>
