<svg width="24" height="24" viewBox="0 0 24 24" fill="none" xmlns="http://www.w3.org/2000/svg">
<path d="M20 10C20 9.44772 19.5523 9 19 9H5C4.44772 9 4 9.44772 4 10V17.25C4 18.7688 4.79594 20 5.77778 20H18.2222C19.2041 20 20 18.7688 20 17.25V10Z" stroke="#767C89" stroke-width="2"/>
<path d="M5 7C3.89543 7 3 7.89543 3 9V11H21V9C21 7.89543 20.1046 7 19 7H5Z" fill="#767C89"/>
<rect x="6" y="4" width="2" height="4" rx="1" fill="#767C89"/>
<rect x="16" y="4" width="2" height="4" rx="1" fill="#767C89"/>
</svg>
