<svg width="24" height="24" viewBox="0 0 24 24" fill="none" xmlns="http://www.w3.org/2000/svg">
<path d="M10.3637 17.625C8.65968 17.625 7.27274 16.1947 7.27274 14.4375V6.75004H6.00005C4.89675 6.75004 4 7.67468 4 8.81245V18.9375C4 20.0752 4.89675 21 6.00005 21H15.0909C16.1942 21 17.0909 20.0752 17.0909 18.9375V17.625H10.3637Z" fill="#767C89"/>
<path d="M20 5.06255C20 3.92326 19.1047 3 18.0001 3H10.3637C9.25894 3 8.36365 3.92326 8.36365 5.06255V14.4375C8.36365 15.5767 9.25894 16.5 10.3637 16.5H18.0001C19.1047 16.5 20 15.5767 20 14.4375V5.06255Z" fill="#767C89"/>
</svg>
