<svg width="22" height="20" viewBox="0 0 22 20" fill="none" xmlns="http://www.w3.org/2000/svg">
<path d="M10.25 7C10.1119 7 10 7.11193 10 7.25V12.75C10 12.8881 10.1119 13 10.25 13H11.75C11.8881 13 12 12.8881 12 12.75V7.25C12 7.11193 11.8881 7 11.75 7H10.25Z" fill="#767C89"/>
<path d="M10.25 14C10.1119 14 10 14.1119 10 14.25V15.75C10 15.8881 10.1119 16 10.25 16H11.75C11.8881 16 12 15.8881 12 15.75V14.25C12 14.1119 11.8881 14 11.75 14H10.25Z" fill="#767C89"/>
<path fill-rule="evenodd" clip-rule="evenodd" d="M8.10035 1.6709C9.36906 -0.556964 12.6309 -0.556971 13.8996 1.6709L21.5685 15.1374C22.83 17.3526 21.1636 20 18.6688 20H3.33119C0.836437 20 -0.82999 17.3526 0.431537 15.1374L8.10035 1.6709ZM12.1626 2.66094C11.6608 1.77969 10.3392 1.77969 9.83737 2.66094L2.16855 16.1274C1.70929 16.9339 2.28261 18 3.33119 18H18.6688C19.7174 18 20.2907 16.9339 19.8314 16.1274L12.1626 2.66094Z" fill="#767C89"/>
</svg>
