<svg width="24" height="24" viewBox="0 0 24 24" fill="none" xmlns="http://www.w3.org/2000/svg">
<path d="M12 0C5.36794 0 0 5.36705 0 12C0 18.6321 5.36705 24 12 24C18.6321 24 24 18.633 24 12C24 5.36794 18.633 0 12 0ZM12 22.125C6.4042 22.125 1.875 17.5965 1.875 12C1.875 6.4042 6.40345 1.875 12 1.875C17.5958 1.875 22.125 6.40345 22.125 12C22.125 17.5958 17.5965 22.125 12 22.125Z" fill="#767C89"/>
<path d="M13.0379 16.0965C13.0379 15.8598 12.8383 15.6679 12.5921 15.6679H11.4775C11.2312 15.6679 11.0316 15.8598 11.0316 16.0965V17.0714C11.0316 17.3081 11.2312 17.5 11.4775 17.5H12.5921C12.8383 17.5 13.0379 17.3081 13.0379 17.0714V16.0965Z" fill="#767C89"/>
<path d="M12.4366 5.52245C11.283 5.40712 10.1346 5.73991 9.28474 6.43556C8.56768 7.02248 8.11348 7.82726 8 8.69072C7.96914 8.92555 8.17161 9.11819 8.41783 9.11819H9.53249C9.77872 9.11819 9.97236 8.92333 10.0334 8.69402C10.1245 8.35183 10.3264 8.04323 10.6239 7.79973C11.0561 7.44596 11.6223 7.28395 12.218 7.34363C13.1368 7.4356 13.877 8.10395 13.9782 8.93292C14.0595 9.60045 13.733 10.2511 13.1259 10.6309C11.9158 11.3881 11.1451 12.575 11.0047 13.866C10.9791 14.1014 11.1811 14.2938 11.4273 14.2938H12.542C12.7882 14.2938 12.9838 14.1004 13.028 13.8676C13.1581 13.1812 13.5983 12.5562 14.26 12.1423C15.4796 11.3791 16.1357 10.0717 15.9721 8.73016C15.768 7.05604 14.2811 5.70698 12.4366 5.52245Z" fill="#767C89"/>
</svg>
