<svg width="24" height="24" viewBox="0 0 24 24" fill="none" xmlns="http://www.w3.org/2000/svg">
<path d="M17.1107 17C19.8066 17 22 14.757 22 12C22 9.243 19.8066 7 17.1107 7C15.9618 7 14.5871 7.68788 12.9079 9.10295C12.8997 9.10986 12.8917 9.11673 12.8835 9.12364L14.9097 11.2052C16.4592 9.93772 17.084 9.92242 17.1107 9.92242C18.2309 9.92242 19.1423 10.8544 19.1423 12C19.1423 13.1455 18.2309 14.0775 17.1107 14.0775C17.0829 14.0775 16.4098 14.0612 14.7253 12.6417C14.5305 12.4776 11.369 9.33624 11.0921 9.10295C9.41297 7.68788 8.0382 7 6.88934 7C4.19336 7 2 9.243 2 12C2 14.757 4.19336 17 6.8893 17C8.03816 17 9.41293 16.3121 11.0921 14.897C11.0997 14.8906 11.1072 14.8842 11.1148 14.8778L9.095 12.7908C7.54246 14.0618 6.91609 14.0775 6.8893 14.0775C5.7691 14.0775 4.85773 13.1456 4.85773 12C4.85773 10.8544 5.76906 9.92246 6.8893 9.92246C6.91687 9.92246 7.66113 9.84792 9.25285 11.3399C10.0648 12.101 12.7056 14.7381 12.9079 14.897C14.6334 16.2526 15.9618 17 17.1107 17Z" fill="#767C89"/>
</svg>
