<svg width="24" height="24" viewBox="0 0 24 24" fill="none" xmlns="http://www.w3.org/2000/svg">
<path d="M17.6895 7.55556C17.6895 10.6238 15.1422 13.1111 12 13.1111C8.85779 13.1111 6.31053 10.6238 6.31053 7.55556C6.31053 4.48731 8.85779 2 12 2C15.1422 2 17.6895 4.48731 17.6895 7.55556Z" fill="#767C89"/>
<path d="M19.9653 22C20.5937 22 21.115 21.4967 20.9779 20.8979C20.6668 19.5386 19.7852 18.2733 18.4369 17.286C16.7297 16.0357 14.4143 15.3333 12 15.3333C9.5857 15.3333 7.27027 16.0357 5.5631 17.286C4.21485 18.2733 3.3332 19.5386 3.02207 20.8979C2.885 21.4967 3.4063 22 4.03474 22L19.9653 22Z" fill="#767C89"/>
</svg>
