<svg width="24" height="24" viewBox="0 0 24 24" fill="none" xmlns="http://www.w3.org/2000/svg">
<path d="M21.2857 7.00001H17.7143V2.7143C17.7143 2.3198 17.3945 2 17 2H2.7143C2.3198 2 2 2.3198 2 2.7143V19.1428C2 20.7208 3.27918 22 4.85715 22H19.1428C20.7208 22 22 20.7208 22 19.1428V7.71427C22 7.31981 21.6802 7.00001 21.2857 7.00001ZM7.71427 5.57141H12C12.3945 5.57141 12.7143 5.89121 12.7143 6.28571C12.7143 6.68021 12.3945 7.00001 12 7.00001H7.71427C7.31976 7.00001 6.99997 6.68021 6.99997 6.28571C6.99997 5.89121 7.31981 5.57141 7.71427 5.57141ZM14.1428 19.1428H5.57141C5.17691 19.1428 4.85711 18.823 4.85711 18.4285C4.85711 18.034 5.17691 17.7142 5.57141 17.7142H14.1428C14.5373 17.7142 14.8571 18.034 14.8571 18.4285C14.8571 18.823 14.5373 19.1428 14.1428 19.1428ZM14.1428 16.2857H5.57141C5.17691 16.2857 4.85711 15.9659 4.85711 15.5714C4.85711 15.1769 5.17691 14.8571 5.57141 14.8571H14.1428C14.5373 14.8571 14.8571 15.1769 14.8571 15.5714C14.8571 15.9659 14.5373 16.2857 14.1428 16.2857ZM14.1428 13.4286H5.57141C5.17691 13.4286 4.85711 13.1088 4.85711 12.7143C4.85711 12.3198 5.17691 12 5.57141 12H14.1428C14.5373 12 14.8571 12.3198 14.8571 12.7143C14.8571 13.1088 14.5373 13.4286 14.1428 13.4286ZM14.1428 10.5714H5.57141C5.17691 10.5714 4.85711 10.2516 4.85711 9.85712C4.85711 9.46262 5.17691 9.14282 5.57141 9.14282H14.1428C14.5373 9.14282 14.8571 9.46262 14.8571 9.85712C14.8571 10.2516 14.5373 10.5714 14.1428 10.5714ZM20.5714 19.1428C20.5714 19.9318 19.9318 20.5714 19.1428 20.5714C18.3539 20.5714 17.7143 19.9318 17.7143 19.1428V8.42857H20.5714L20.5714 19.1428Z" fill="#767C89"/>
</svg>
