<svg width="24" height="24" viewBox="0 0 24 24" fill="none" xmlns="http://www.w3.org/2000/svg">
<path fill-rule="evenodd" clip-rule="evenodd" d="M3.27525 18.0666C2.90825 18.4337 2.90825 19.0287 3.27525 19.3957L4.6043 20.7247C4.97131 21.0918 5.56634 21.0918 5.93335 20.7247L7.92692 18.7312L9.25597 20.0602C9.62297 20.4272 10.218 20.4272 10.585 20.0602L11.9141 18.7312C12.2811 18.3642 12.2811 17.7691 11.9141 17.4021L10.585 16.0731L12.0621 14.596C14.3694 15.7808 17.2703 15.4069 19.2029 13.4743C21.599 11.0782 21.599 7.19325 19.2029 4.79711C16.8067 2.40096 12.9218 2.40096 10.5257 4.79711C8.59314 6.72966 8.21924 9.63063 9.40399 11.9379L3.27525 18.0666ZM13.0049 7.27631C11.978 8.30323 11.978 9.96819 13.0049 10.9951C14.0318 12.022 15.6968 12.022 16.7237 10.9951C17.7506 9.96819 17.7506 8.30323 16.7237 7.27631C15.6968 6.24939 14.0318 6.24939 13.0049 7.27631Z" fill="#767C89"/>
</svg>
