<svg width="112" height="48" viewBox="0 0 112 48" fill="none" xmlns="http://www.w3.org/2000/svg">
<path d="M9.1425 0H38.8801C41.2991 0.0119435 43.6153 0.979342 45.3237 2.69128C47.032 4.40322 47.9941 6.72086 48 9.1389V38.8649C47.9931 41.2823 47.0306 43.5989 45.3223 45.3101C43.6141 47.0212 41.2985 47.9881 38.8801 48H25.4269H9.1425C6.7199 47.993 4.39852 47.0279 2.68548 45.3156C0.972435 43.6032 0.00697155 41.2827 0 38.8611V27.7412V9.1389C0.00697155 6.71726 0.972435 4.39679 2.68548 2.68442C4.39852 0.972053 6.7199 0.00696881 9.1425 0Z" fill="url(#paint0_linear)"/>
<path fill-rule="evenodd" clip-rule="evenodd" d="M30.2181 19.8641C31.4625 20.6967 32.9258 21.1417 34.4231 21.1428H34.3957C35.3928 21.1471 36.3808 20.9545 37.3032 20.5759C38.2257 20.1973 39.0642 19.6403 39.7708 18.9368C40.4773 18.2333 41.038 17.3972 41.4205 16.4764C41.8031 15.5557 42 14.5685 42 13.5714C42 12.0741 41.5561 10.6105 40.7244 9.36552C39.8926 8.12053 38.7105 7.15009 37.3273 6.57686C35.9441 6.00364 34.422 5.85339 32.9535 6.14509C31.4849 6.43679 30.1358 7.15735 29.0767 8.21568C28.0176 9.27401 27.2961 10.6226 27.0033 12.0909C26.7105 13.5593 26.8597 15.0815 27.4319 16.465C28.0041 17.8486 28.9737 19.0315 30.2181 19.8641Z" fill="#F2F2F3"/>
<path d="M18.7728 21.1429C13.0538 21.1429 6.36167 23.3524 0 26.9808V37.2022C4.7802 33.2417 9.68008 31.6303 11.7547 31.6303C14.7342 31.6303 19.0928 34.954 13.1822 43.7865C12.1277 45.3622 10.9811 46.7626 9.79188 48H22.5983C23.7635 46.6348 24.8377 45.2263 25.8012 43.7865C34.1699 31.2808 31.0232 21.1429 18.7728 21.1429Z" fill="#F2F2F3"/>
<path d="M69.6432 16.4077C70.9929 17.1879 72.0934 18.3499 72.8124 19.7538C73.5892 21.2989 73.9773 23.0172 73.9416 24.7538C73.9805 26.4908 73.5922 28.2099 72.8124 29.7538C72.0912 31.1562 70.9912 32.3175 69.6432 33.1C68.2025 33.8732 66.5995 34.2772 64.9721 34.2772C63.3448 34.2772 61.7418 33.8732 60.3011 33.1C58.9521 32.3187 57.8519 31.1571 57.1318 29.7538C56.352 28.2099 55.9638 26.4908 56.0027 24.7538C55.967 23.0172 56.3551 21.2989 57.1318 19.7538C57.8498 18.3491 58.9505 17.1869 60.3011 16.4077C61.7411 15.6323 63.3444 15.227 64.9721 15.227C66.5999 15.227 68.2031 15.6323 69.6432 16.4077ZM67.0724 29.1885C67.6921 28.7426 68.1719 28.1227 68.4538 27.4038C68.7758 26.5692 68.9332 25.6778 68.9168 24.7808C68.9346 23.8724 68.7773 22.9694 68.4538 22.1231C68.1727 21.4007 67.6929 20.7768 67.0724 20.3269C66.4639 19.8883 65.7356 19.6568 64.991 19.6654C64.2355 19.6503 63.4943 19.8776 62.8719 20.3154C62.2535 20.7666 61.7753 21.3902 61.4943 22.1115C61.1708 22.9578 61.0135 23.8609 61.0313 24.7692C61.0122 25.6698 61.1682 26.5654 61.4905 27.4038C61.7704 28.1259 62.2489 28.7497 62.8681 29.2C63.4902 29.6389 64.2313 29.8675 64.9872 29.8538C65.7335 29.8618 66.4632 29.629 67.0724 29.1885Z" fill="#F2F2F3"/>
<path d="M81.6201 29.9115C82.2532 30.262 82.9669 30.432 83.6865 30.4038C84.3668 30.4453 85.0425 30.2663 85.6174 29.8923C85.8312 29.7454 86.0061 29.5466 86.1263 29.3137C86.2465 29.0807 86.3083 28.821 86.3062 28.5577C86.3142 28.3557 86.2726 28.1548 86.1851 27.9734C86.0977 27.792 85.9672 27.6359 85.8056 27.5192C85.3634 27.234 84.8619 27.0588 84.3414 27.0077L81.3077 26.6346C79.6064 26.4269 78.2852 25.8936 77.3442 25.0346C76.4032 24.1756 75.9328 22.9256 75.9328 21.2846C75.9168 20.1636 76.2488 19.0662 76.8813 18.15C77.5504 17.2004 78.4618 16.4567 79.516 16C80.7285 15.4704 82.0368 15.2082 83.3553 15.2308C84.6173 15.2089 85.871 15.4429 87.0439 15.9192C88.0734 16.3329 88.981 17.0112 89.6787 17.8885C90.354 18.7671 90.7716 19.8233 90.8831 20.9346H86.0277C85.8868 20.3741 85.5351 19.8931 85.049 19.5962C84.4979 19.2773 83.8717 19.119 83.2386 19.1385C82.6078 19.108 81.9844 19.2875 81.462 19.65C81.2605 19.7868 81.0948 19.9718 80.9793 20.189C80.8638 20.4062 80.8021 20.649 80.7995 20.8962C80.7862 21.0996 80.8234 21.3033 80.9076 21.4882C80.9919 21.6731 81.1204 21.8332 81.2813 21.9538C81.6942 22.2181 82.1652 22.3728 82.6514 22.4038L85.8244 22.7885C87.2698 22.9079 88.6424 23.4861 89.7502 24.4423C90.7163 25.3346 91.1993 26.5897 91.1993 28.2077C91.2283 29.3776 90.8892 30.5262 90.232 31.4846C89.5521 32.4284 88.6184 33.15 87.5445 33.5615C86.3144 34.046 85.0047 34.2849 83.6865 34.2654C82.3808 34.2819 81.0817 34.0739 79.8435 33.65C78.7396 33.2802 77.7522 32.6164 76.9829 31.7269C76.2219 30.8121 75.7692 29.6712 75.6919 28.4731H80.585C80.6457 28.775 80.7696 29.0599 80.9483 29.3082C81.127 29.5565 81.3561 29.7623 81.6201 29.9115Z" fill="#F2F2F3"/>
<path d="M92.8856 19.8385V15.65H95.6107V11H100.639V15.65H104.053V19.8385H100.639V27.0962C100.639 28.0115 100.835 28.6385 101.226 28.9769C101.742 29.3564 102.485 29.5192 103.049 29.5192H104.946V26.3692H106.471L112 30.9808V32.3615L106.437 37H104.946V33.8923H102.111C99.8526 33.8923 98.204 33.3923 97.1652 32.3923C96.1263 31.3923 95.6082 29.7551 95.6107 27.4808V19.8385H92.8856Z" fill="#F2F2F3"/>
<defs>
<linearGradient id="paint0_linear" x1="48" y1="48" x2="-3.12287" y2="44.4047" gradientUnits="userSpaceOnUse">
<stop stop-color="#228DE2"/>
<stop offset="0.505208" stop-color="#4252E6"/>
<stop offset="1" stop-color="#4428B6"/>
</linearGradient>
</defs>
</svg>
