<svg width="48" height="48" viewBox="0 0 48 48" fill="none" xmlns="http://www.w3.org/2000/svg">
<path d="M9.1425 0H38.8801C41.2991 0.0119435 43.6153 0.979342 45.3237 2.69128C47.032 4.40322 47.9941 6.72086 48 9.1389V38.8649C47.9931 41.2823 47.0306 43.5989 45.3223 45.3101C43.6141 47.0212 41.2985 47.9881 38.8801 48H25.4269H9.1425C6.7199 47.993 4.39852 47.0279 2.68548 45.3156C0.972435 43.6032 0.00697155 41.2827 0 38.8611V27.7412V9.1389C0.00697155 6.71726 0.972435 4.39679 2.68548 2.68442C4.39852 0.972053 6.7199 0.00696881 9.1425 0Z" fill="url(#paint0_linear)"/>
<path fill-rule="evenodd" clip-rule="evenodd" d="M30.2181 19.8641C31.4625 20.6967 32.9258 21.1417 34.4231 21.1428H34.3957C35.3928 21.1471 36.3808 20.9545 37.3032 20.5759C38.2257 20.1973 39.0642 19.6403 39.7708 18.9368C40.4773 18.2333 41.038 17.3972 41.4205 16.4764C41.8031 15.5557 42 14.5685 42 13.5714C42 12.0741 41.5561 10.6105 40.7244 9.36552C39.8926 8.12053 38.7105 7.15009 37.3273 6.57686C35.9441 6.00364 34.422 5.85339 32.9535 6.14509C31.4849 6.43679 30.1358 7.15735 29.0767 8.21568C28.0176 9.27401 27.2961 10.6226 27.0033 12.0909C26.7105 13.5593 26.8597 15.0815 27.4319 16.465C28.0041 17.8486 28.9737 19.0315 30.2181 19.8641Z" fill="#F2F2F3"/>
<path d="M18.7728 21.1429C13.0538 21.1429 6.36167 23.3524 0 26.9808V37.2022C4.7802 33.2417 9.68008 31.6303 11.7547 31.6303C14.7342 31.6303 19.0928 34.954 13.1822 43.7865C12.1277 45.3622 10.9811 46.7626 9.79188 48H22.5983C23.7635 46.6348 24.8377 45.2263 25.8012 43.7865C34.1699 31.2808 31.0232 21.1429 18.7728 21.1429Z" fill="#F2F2F3"/>
<defs>
<linearGradient id="paint0_linear" x1="48" y1="48" x2="-3.12287" y2="44.4047" gradientUnits="userSpaceOnUse">
<stop stop-color="#228DE2"/>
<stop offset="0.505208" stop-color="#4252E6"/>
<stop offset="1" stop-color="#4428B6"/>
</linearGradient>
</defs>
</svg>
