<svg width="128" height="128" viewBox="0 0 128 128" fill="none" xmlns="http://www.w3.org/2000/svg">
<path d="M103 0H24.22C17.8021 0.0184688 11.6524 2.57614 7.11428 7.11428C2.57614 11.6524 0.0184688 17.8021 0 24.22V73.52C3.21682 69.8644 6.69966 66.4517 10.42 63.31C19.3747 55.7206 29.5889 49.7572 40.6 45.69C51.9 41.49 61.6367 40.0033 69.81 41.23C77.9833 42.4567 84.0467 46.1433 88 52.29C91.9667 58.4433 93.4867 66.68 92.56 77C91.5576 87.4485 88.3394 97.5632 83.12 106.67C78.8611 114.225 73.5552 121.14 67.36 127.21H103C109.407 127.178 115.541 124.616 120.066 120.081C124.592 115.546 127.142 109.407 127.16 103V24.22C127.144 17.8117 124.596 11.6695 120.07 7.13246C115.544 2.59546 109.408 0.0316528 103 0ZM100.54 45C97.8071 44.998 95.1361 44.1858 92.8647 42.666C90.5934 41.1463 88.8236 38.9872 87.7791 36.4618C86.7346 33.9363 86.4624 31.1579 86.9968 28.4777C87.5311 25.7976 88.8482 23.336 90.7813 21.4043C92.7145 19.4725 95.177 18.1573 97.8575 17.6248C100.538 17.0924 103.316 17.3666 105.841 18.4129C108.366 19.4592 110.523 21.2306 112.042 23.5031C113.56 25.7755 114.37 28.4471 114.37 31.18C114.37 32.9999 114.011 34.8019 113.312 36.4826C112.614 38.1632 111.591 39.6894 110.301 40.9735C109.011 42.2576 107.481 43.2743 105.797 43.9653C104.113 44.6563 102.31 45.0079 100.49 45H100.54Z" fill="#1A80E5"/>
<path d="M53.51 71.8C49.17 71.68 44 72.7467 38 75C32.3461 77.0665 27.0158 79.9286 22.17 83.5C17.6793 86.7787 13.8202 90.8445 10.78 95.5C8.01138 99.6116 6.29447 104.34 5.78 109.27C5.36667 113.757 6.29 117.3 8.55 119.9C10.81 122.5 14.1233 123.867 18.49 124C22.8633 124.12 27.9767 123.093 33.83 120.92C39.5429 118.832 44.9301 115.944 49.83 112.34C54.3178 109.058 58.1763 104.993 61.22 100.34C63.9683 96.2921 65.6848 91.6334 66.22 86.77C66.64 82.1033 65.72 78.47 63.46 75.87C61.2 73.27 57.8833 71.9133 53.51 71.8Z" fill="#1A80E5"/>
</svg>
