<?xml version="1.0" encoding="UTF-8"?>
<svg xmlns="http://www.w3.org/2000/svg" width="24" height="24" viewBox="0 0 24 24" version="1.1">
<g id="surface1">
<path style=" stroke:none;fill-rule:evenodd;fill:#767C89;fill-opacity:1;" d="M 17.492188 19.179688 C 17.5625 19.09375 17.632812 19.011719 17.707031 18.925781 C 18.671875 17.832031 19.933594 16.867188 21.492188 15.945312 C 22.171875 15.542969 22.867188 15.164062 23.578125 14.808594 L 23.578125 18.738281 C 21.054688 19.609375 19.257812 22 19.257812 23.636719 L 15.726562 23.636719 C 15.730469 22.007812 14.34375 20.4375 11.6875 18.863281 C 11.058594 18.492188 10.417969 18.144531 9.761719 17.816406 L 9.714844 17.839844 C 9.078125 18.160156 8.449219 18.5 7.835938 18.863281 C 5.179688 20.4375 3.792969 22.007812 3.796875 23.636719 L 0.3125 23.636719 C 0.3125 21.90625 1.003906 20.332031 2.246094 18.925781 C 3.210938 17.832031 4.472656 16.867188 6.027344 15.945312 C 6.101562 15.898438 6.175781 15.855469 6.25 15.8125 C 4.007812 14.074219 2.570312 11.609375 2.371094 8.789062 C 2.328125 8.207031 2.335938 7.796875 2.402344 7.175781 C 2.484375 6.347656 2.6875 5.546875 2.996094 4.804688 C 4.144531 2.046875 6.679688 0.277344 9.730469 0.253906 C 9.75 0.253906 9.769531 0.253906 9.792969 0.253906 C 12.84375 0.277344 15.378906 2.050781 16.527344 4.804688 C 16.839844 5.5625 17.039062 6.359375 17.121094 7.175781 C 17.183594 7.796875 17.195312 8.207031 17.152344 8.789062 C 16.953125 11.609375 15.515625 14.074219 13.269531 15.8125 C 13.347656 15.855469 13.417969 15.898438 13.492188 15.945312 C 15.050781 16.867188 16.3125 17.832031 17.277344 18.925781 C 17.351562 19.011719 17.421875 19.09375 17.492188 19.179688 Z M 9.761719 13.984375 L 9.777344 13.976562 C 12.066406 12.808594 13.515625 10.847656 13.675781 8.550781 C 13.703125 8.167969 13.699219 7.949219 13.65625 7.515625 C 13.609375 7.027344 13.488281 6.546875 13.300781 6.09375 C 12.675781 4.585938 11.378906 3.679688 9.761719 3.667969 C 8.144531 3.679688 6.847656 4.585938 6.222656 6.09375 C 6.035156 6.546875 5.914062 7.027344 5.867188 7.515625 C 5.824219 7.949219 5.816406 8.167969 5.84375 8.550781 C 6.007812 10.847656 7.457031 12.808594 9.742188 13.976562 Z M 9.761719 13.984375 "/>
</g>
</svg>
