<svg width="25" height="24" viewBox="0 0 25 24" fill="none" xmlns="http://www.w3.org/2000/svg">
<path fill-rule="evenodd" clip-rule="evenodd" d="M20.2782 4.2218C18.2006 2.14417 15.4382 1 12.5 1C9.5618 1 6.79942 2.14417 4.7218 4.2218C2.64417 6.29942 1.5 9.0618 1.5 12C1.5 14.9382 2.64421 17.7005 4.7218 19.7782C6.79938 21.8559 9.5618 23 12.5 23C15.4382 23 18.2006 21.8558 20.2782 19.7782C22.3558 17.7006 23.5 14.9382 23.5 12C23.5 9.0618 22.3558 6.29947 20.2782 4.2218ZM12.9764 10.4755C13.5427 10.7177 14.11 10.9605 14.6473 11.2681C16.5797 12.3751 17.0994 14.8899 15.7346 16.6083C15.2436 17.2295 14.6058 17.6459 13.8564 17.8574C13.5312 17.9499 13.3845 18.1283 13.4004 18.4786C13.4087 18.6997 13.405 18.9221 13.4013 19.1441C13.3993 19.2673 13.3973 19.3903 13.3973 19.5129C13.3973 19.8203 13.2474 19.9855 12.954 19.9921C12.5969 20.002 12.2365 20.002 11.8794 19.9954C11.5637 19.9888 11.417 19.8037 11.4138 19.4865C11.4122 19.3609 11.4114 19.2345 11.4107 19.1081C11.4099 18.9817 11.4091 18.8553 11.4075 18.7298C11.4011 18.1746 11.3851 18.1515 10.8686 18.0655C10.2085 17.9565 9.56116 17.8012 8.95529 17.4972C8.48017 17.2559 8.42915 17.1337 8.56626 16.6182L8.56627 16.6181C8.66831 16.2348 8.77035 15.8515 8.88514 15.4715C9.01907 15.032 9.13387 14.9758 9.52608 15.1873C10.1957 15.5475 10.9068 15.7491 11.6498 15.8449C12.1313 15.9077 12.6001 15.8581 13.0433 15.6565C13.8724 15.2798 13.9999 14.2852 13.3016 13.687C13.0656 13.4822 12.7946 13.3335 12.5108 13.2046C12.2796 13.0985 12.0452 13.0007 11.811 12.903C11.3085 12.6934 10.8068 12.4841 10.3392 12.1934C9.22634 11.5028 8.51843 10.5544 8.60134 9.14993C8.69381 7.56375 9.56116 6.57239 10.9642 6.04367C10.9743 6.03987 10.9843 6.03614 10.994 6.03247C11.5447 5.82572 11.5478 5.82454 11.551 5.20762C11.5523 5.11549 11.5519 5.02396 11.5515 4.93278C11.551 4.81139 11.5505 4.69062 11.5541 4.56985C11.5669 4.0973 11.6434 4.01469 12.0962 4.00147C12.1898 3.99927 12.2833 4 12.3768 4.00073C12.4236 4.0011 12.4704 4.00147 12.5172 4.00147C13.4865 4.00147 13.4865 4.00147 13.4897 5.00274V5.00278C13.4929 5.71322 13.4929 5.71652 14.1753 5.82557C14.6983 5.91149 15.1957 6.0701 15.6804 6.29151C15.9451 6.41378 16.0471 6.60544 15.9642 6.89624C15.9193 7.0527 15.876 7.2096 15.8327 7.36647C15.7563 7.64359 15.6798 7.9206 15.5943 8.19492C15.4668 8.60137 15.3424 8.66086 14.9661 8.4725C14.2104 8.09578 13.4164 7.93716 12.5809 7.98343C12.3641 7.99665 12.1504 8.02639 11.9464 8.11891C11.2257 8.44606 11.1077 9.27219 11.7232 9.78109C12.0357 10.0388 12.3896 10.2239 12.7595 10.3825C12.8317 10.4136 12.904 10.4445 12.9764 10.4755Z" fill="#F2F2F3"/>
</svg>
