<svg width="24" height="24" viewBox="0 0 24 24" fill="none" xmlns="http://www.w3.org/2000/svg">
<path fill-rule="evenodd" clip-rule="evenodd" d="M9.82681 1.46153L11.3552 0.228074C11.732 -0.076025 12.268 -0.0760246 12.6448 0.228075L14.1732 1.46153C14.4097 1.65239 14.7176 1.7288 15.0152 1.67045L16.9379 1.29331C17.4119 1.20034 17.8865 1.4511 18.0798 1.89666L18.8637 3.70386C18.985 3.98351 19.2224 4.19524 19.5128 4.28276L21.3893 4.84834C21.852 4.98778 22.1565 5.43187 22.1219 5.91681L21.9818 7.88376C21.9601 8.18812 22.0726 8.48667 22.2893 8.70001L23.6898 10.0787C24.0351 10.4187 24.0997 10.9543 23.8453 11.3676L22.8132 13.0436C22.6535 13.303 22.6153 13.62 22.7087 13.9103L23.3123 15.7863C23.4611 16.2488 23.2711 16.7534 22.855 17.0002L21.1674 18.0015C20.9063 18.1564 20.7261 18.4192 20.6748 18.7199L20.3433 20.6635C20.2616 21.1426 19.8604 21.5005 19.378 21.5244L17.4215 21.6214C17.1188 21.6365 16.8379 21.7848 16.6537 22.0271L15.4629 23.593C15.1694 23.979 14.6489 24.1081 14.2108 23.9037L12.4336 23.0743C12.1586 22.9459 11.8414 22.9459 11.5664 23.0743L9.78923 23.9037C9.35108 24.1081 8.83065 23.979 8.53708 23.593L7.34633 22.0271C7.16207 21.7848 6.88124 21.6365 6.57849 21.6214L4.622 21.5244C4.13965 21.5005 3.73844 21.1426 3.6567 20.6635L3.32518 18.7199C3.27388 18.4192 3.0937 18.1564 2.83257 18.0015L1.14499 17.0002C0.728923 16.7534 0.538852 16.2488 0.687676 15.7863L1.29132 13.9103C1.38473 13.62 1.3465 13.303 1.18679 13.0436L0.154719 11.3676C-0.0997318 10.9543 -0.0351226 10.4187 0.310167 10.0787L1.71069 8.70001C1.92741 8.48667 2.03988 8.18812 2.01819 7.88376L1.87806 5.91681C1.84352 5.43187 2.148 4.98778 2.61066 4.84834L4.48722 4.28276C4.7776 4.19524 5.015 3.98351 5.13631 3.70386L5.92022 1.89666C6.11349 1.4511 6.5881 1.20034 7.06213 1.29331L8.98484 1.67045C9.28235 1.7288 9.59031 1.65239 9.82681 1.46153ZM12 2.36796L11.1164 3.08103C10.4069 3.65362 9.48308 3.88285 8.59053 3.70778L7.47901 3.48976L7.02582 4.53451C6.66191 5.37345 5.9497 6.00865 5.07857 6.2712L3.99372 6.59817L4.07473 7.73527C4.13978 8.64836 3.80237 9.544 3.15222 10.184L2.34257 10.9811L2.93922 11.95C3.41833 12.7281 3.53302 13.679 3.2528 14.5499L2.90383 15.6344L3.87943 16.2133C4.66283 16.6781 5.20335 17.4664 5.35725 18.3686L5.54891 19.4922L6.67996 19.5483C7.58819 19.5934 8.43071 20.0385 8.98348 20.7654L9.67185 21.6706L10.6992 21.1911C11.5242 20.8061 12.4758 20.8061 13.3008 21.1911L14.3281 21.6706L15.0165 20.7654C15.5693 20.0385 16.4118 19.5934 17.32 19.5483L18.4511 19.4922L18.6427 18.3686C18.7966 17.4664 19.3372 16.6781 20.1206 16.2133L21.0962 15.6344L20.7472 14.5499C20.467 13.679 20.5817 12.7281 21.0608 11.95L21.6574 10.9811L20.8478 10.184C20.1976 9.54401 19.8602 8.64837 19.9253 7.73527L20.0063 6.59817L18.9214 6.2712C18.0503 6.00865 17.3381 5.37345 16.9742 4.53451L16.521 3.48976L15.4095 3.70778C14.5169 3.88285 13.5931 3.65362 12.8836 3.08103L12 2.36796Z" fill="#767C89"/>
<path d="M13.6104 11.4511C13.156 11.1909 12.6729 10.9926 12.1946 10.7869C11.9172 10.6679 11.6517 10.5291 11.4174 10.3358C10.9558 9.95415 11.0443 9.33455 11.5848 9.08918C11.7378 9.01979 11.8981 8.99748 12.0607 8.98757C12.6873 8.95287 13.2828 9.07184 13.8496 9.35437C14.1318 9.49564 14.2251 9.45103 14.3207 9.14619C14.4212 8.824 14.5049 8.49685 14.5982 8.17218C14.6603 7.95408 14.5838 7.81033 14.3853 7.71863C14.0218 7.55258 13.6487 7.43362 13.2565 7.36918C12.7447 7.28739 12.7447 7.28491 12.7423 6.75206C12.7399 6.0011 12.7399 6.0011 12.0129 6.0011C11.9076 6.0011 11.8024 5.99862 11.6972 6.0011C11.3576 6.01101 11.3002 6.07298 11.2906 6.42739C11.2858 6.586 11.2906 6.74462 11.2882 6.90572C11.2858 7.37661 11.2834 7.36918 10.8482 7.53275C9.79587 7.92929 9.14536 8.67281 9.076 9.86244C9.01382 10.9158 9.54475 11.6271 10.3794 12.145C10.8936 12.4648 11.4628 12.6531 12.0081 12.9034C12.2209 13.0001 12.4242 13.1116 12.6012 13.2653C13.125 13.7139 13.0293 14.4599 12.4075 14.7424C12.075 14.8936 11.7235 14.9308 11.3624 14.8837C10.8051 14.8118 10.2718 14.6606 9.76956 14.3905C9.4754 14.2319 9.3893 14.274 9.28886 14.6036C9.20276 14.8886 9.12623 15.1761 9.0497 15.4636C8.94686 15.8503 8.98512 15.942 9.34147 16.1229C9.79587 16.3509 10.2814 16.4674 10.7764 16.5492C11.1639 16.6136 11.1758 16.6309 11.1806 17.0473C11.183 17.2357 11.183 17.4265 11.1854 17.6149C11.1878 17.8528 11.2978 17.9916 11.5346 17.9965C11.8024 18.0015 12.0727 18.0015 12.3405 17.9941C12.5605 17.9891 12.6729 17.8652 12.6729 17.6347C12.6729 17.3769 12.6849 17.1167 12.6753 16.859C12.6634 16.5963 12.7734 16.4624 13.0173 16.393C13.5794 16.2344 14.0577 15.9221 14.426 15.4562C15.4496 14.1674 15.0597 12.2814 13.6104 11.4511Z" fill="#767C89"/>
</svg>
