<svg width="24" height="24" viewBox="0 0 24 24" fill="none" xmlns="http://www.w3.org/2000/svg">
<path d="M4.40219 12.9222C4.36358 12.6006 4.34375 12.2811 4.34375 12C4.34375 7.80459 7.80459 4.34375 12 4.34375C13.9569 4.34375 15.7891 5.13278 17.1367 6.36325L16.4609 7.05081C16.3086 7.20309 16.25 7.42572 16.3086 7.63675C16.379 7.83587 16.543 7.98831 16.7539 8.03515C16.8718 8.0588 20.7466 9.30743 20.4999 9.25784C20.8138 9.36236 21.2779 9.02758 21.1914 8.56646C21.1676 8.44836 20.3098 4.14401 20.3594 4.39059C20.3125 4.17972 20.1601 4.00394 19.9492 3.94534C19.7501 3.88675 19.5273 3.94534 19.375 4.09762L18.8008 4.66006C17.0313 3.00784 14.6015 2 12 2C6.50393 2 2 6.50393 2 12V12.0233C2 12.3537 2.01511 12.609 2.03265 12.8043C2.056 13.0631 2.24673 13.275 2.50156 13.3261L3.70532 13.5668C4.09717 13.6452 4.44949 13.3167 4.40219 12.9222Z" fill="#767C89"/>
<path d="M21.502 10.673L20.2947 10.427C19.9024 10.347 19.5476 10.6758 19.5958 11.0721C19.6376 11.4141 19.6563 11.7466 19.6563 12C19.6563 16.1953 16.1954 19.6562 12 19.6562C10.0431 19.6562 8.21095 18.8672 6.86329 17.625L7.5391 16.9492C7.69139 16.7969 7.74998 16.5743 7.69139 16.3633C7.62104 16.164 7.45701 16.0117 7.24614 15.9648C7.12819 15.941 3.25337 14.6926 3.50011 14.7422C3.30083 14.7071 3.10155 14.7657 2.97276 14.9062C2.83208 15.0351 2.77348 15.246 2.80858 15.4335C2.83238 15.5515 3.69038 19.8168 3.64079 19.5702C3.68748 19.7812 3.83992 19.957 4.0508 20.0154C4.29539 20.0768 4.49956 20.0026 4.62498 19.8632L5.18757 19.3007C6.95698 20.9531 9.38679 22 12 22C17.4961 22 22 17.4961 22 12V11.9648C22 11.7051 21.9905 11.4501 21.9689 11.1966C21.9466 10.9377 21.7566 10.725 21.502 10.673Z" fill="#767C89"/>
</svg>
