<svg width="24" height="24" viewBox="0 0 24 24" fill="none" xmlns="http://www.w3.org/2000/svg">
<path d="M17.0459 15.4214C16.7253 15.1008 16.692 14.5972 16.9205 14.2057C17.5626 13.1057 17.9342 11.8303 17.9342 10.4672C17.9342 6.34992 14.5843 3 10.4671 3C6.34986 3 3 6.34992 3 10.4672C3 14.5844 6.3499 17.9344 10.4671 17.9344C11.8302 17.9344 13.1058 17.5627 14.2057 16.9206C14.5973 16.692 15.1009 16.7253 15.4215 17.0459L19.1064 20.7308C19.4653 21.0897 20.0472 21.0897 20.4061 20.7308L20.7308 20.4061C21.0897 20.0472 21.0897 19.4653 20.7308 19.1064L17.0459 15.4214ZM10.4671 15.6368C7.61647 15.6368 5.29759 13.3179 5.29759 10.4672C5.29759 7.6165 7.61647 5.29761 10.4671 5.29761C13.3178 5.29761 15.6367 7.6165 15.6367 10.4672C15.6367 13.3179 13.3178 15.6368 10.4671 15.6368Z" fill="#767C89"/>
</svg>
