<svg width="24" height="24" viewBox="0 0 24 24" fill="none" xmlns="http://www.w3.org/2000/svg">
<path d="M21.7936 9.61117L20.0702 9.39208C19.9281 8.95483 19.753 8.53317 19.5486 8.13258L20.6129 6.76217C21.0438 6.20758 20.9933 5.42475 20.5011 4.94808L19.0573 3.50433C18.576 3.0075 17.7931 2.958 17.2376 3.38792L15.869 4.45217C15.4684 4.24775 15.0467 4.07267 14.6085 3.93058L14.3894 2.21C14.3069 1.51975 13.7211 1 13.0272 1H10.9737C10.2798 1 9.69403 1.51975 9.61152 2.20725L9.39243 3.93058C8.95425 4.07267 8.53256 4.24683 8.13196 4.45217L6.76241 3.38792C6.20872 2.958 5.42585 3.0075 4.94825 3.49975L3.50444 4.94258C3.00758 5.42475 2.95716 6.20758 3.38802 6.76308L4.45231 8.13258C4.24697 8.53317 4.07279 8.95483 3.93071 9.39208L2.21005 9.61117C1.51977 9.69367 1 10.2794 1 10.9733V13.0267C1 13.7206 1.51977 14.3063 2.2073 14.3888L3.93071 14.6079C4.07279 15.0452 4.24788 15.4668 4.45231 15.8674L3.38802 17.2378C2.95716 17.7924 3.00758 18.5753 3.49985 19.0519L4.94366 20.4957C5.42585 20.9916 6.2078 21.0411 6.76332 20.6112L8.13288 19.5469C8.53348 19.7523 8.95516 19.9273 9.39243 20.0685L9.61152 21.7882C9.69403 22.4802 10.2798 23 10.9737 23H13.0272C13.7211 23 14.3069 22.4803 14.3894 21.7928L14.6085 20.0694C15.0458 19.9273 15.4674 19.7523 15.868 19.5478L17.2385 20.6121C17.7931 21.0429 18.576 20.9925 19.0527 20.5003L20.4965 19.0565C20.9933 18.5743 21.0438 17.7924 20.6129 17.2369L19.5486 15.8674C19.7539 15.4668 19.929 15.0452 20.0702 14.6079L21.7899 14.3888C22.4802 14.3063 23 13.7206 23 13.0267V10.9733C23.0009 10.2794 22.4811 9.69367 21.7936 9.61117ZM12.0005 16.5833C9.4731 16.5833 7.41693 14.5273 7.41693 12C7.41693 9.47275 9.4731 7.41667 12.0005 7.41667C14.5278 7.41667 16.584 9.47275 16.584 12C16.584 14.5273 14.5278 16.5833 12.0005 16.5833Z" fill="#767C89"/>
</svg>
