<svg width="24" height="24" viewBox="0 0 24 24" fill="none" xmlns="http://www.w3.org/2000/svg">
<path d="M21.1271 13.172C21.4095 13.5596 21.6246 13.9804 21.7749 14.4414C21.9244 14.9009 22 15.3764 22 15.8689C22 16.5742 21.853 17.2367 21.5623 17.8573C21.2708 18.4764 20.8696 19.022 20.358 19.496C19.8463 19.9651 19.2508 20.3334 18.5664 20.601C17.8821 20.8686 17.162 21 16.3962 21C15.3056 21 14.3272 20.7501 13.4593 20.2512C13.2184 20.2835 12.9759 20.3068 12.7309 20.3246C12.4851 20.3407 12.2417 20.3471 11.9983 20.3471C10.7243 20.3471 9.52824 20.1255 8.40947 19.6838C7.29319 19.2397 6.31561 18.6368 5.47342 17.8686C4.63372 17.1037 3.97176 16.2018 3.49502 15.1693C3.01412 14.1368 2.77409 13.0333 2.77409 11.8606C2.77409 11.6333 2.78571 11.4172 2.81063 11.2174C2.83306 11.0175 2.86379 10.8135 2.89535 10.6096C2.29734 9.80441 2 8.93955 2 8.01182C2 7.32187 2.14701 6.6698 2.43854 6.05642C2.72924 5.44385 3.12791 4.91107 3.63953 4.45889C4.15116 4.00591 4.75 3.64965 5.43023 3.3885C6.11213 3.12735 6.83555 3 7.60133 3C8.15282 3 8.67027 3.06287 9.16196 3.19103C9.65365 3.3208 10.1138 3.50134 10.5382 3.73751C10.7782 3.70446 11.0241 3.68109 11.2666 3.66255C11.5125 3.64804 11.7583 3.63917 11.9983 3.63917C13.2766 3.63917 14.4767 3.85519 15.5988 4.28479C16.7184 4.71118 17.6985 5.30199 18.5407 6.05158C19.3829 6.80441 20.0465 7.67571 20.5282 8.66711C21.0083 9.66013 21.2483 10.7257 21.2483 11.8606C21.2492 12.2789 21.2093 12.7166 21.1271 13.172ZM16.3962 15.7528C16.7899 15.2499 16.9842 14.6591 16.9842 13.9804C16.9842 13.446 16.8746 12.997 16.6586 12.6327C16.4336 12.27 16.1163 11.9661 15.7068 11.7235C15.3306 11.4882 14.8414 11.2794 14.2425 11.0924C13.6404 10.9457 13.0017 10.8023 12.3264 10.6556L11.5864 10.4919C11.3879 10.4508 11.2301 10.4162 11.1113 10.3847C10.9792 10.3533 10.8571 10.3186 10.7409 10.2775C10.6312 10.2397 10.515 10.1953 10.3987 10.147C10.1728 10.0551 9.98339 9.93015 9.83306 9.78345C9.71678 9.65691 9.65864 9.48684 9.65864 9.27566C9.65864 8.96695 9.84801 8.6913 10.2243 8.44707C10.6503 8.21897 11.1711 8.10935 11.7899 8.1166C12.505 8.1166 13.0075 8.21897 13.2907 8.4245C13.6329 8.66792 13.9012 8.96776 14.093 9.3216C14.26 9.58114 14.4294 9.77458 14.6047 9.90194C14.7716 10.0261 15.0033 10.093 15.2949 10.1018C15.6229 10.1018 15.8945 9.99624 16.1229 9.78345C16.3463 9.58517 16.4535 9.3619 16.4477 9.11042C16.4477 8.81945 16.363 8.53332 16.1968 8.25766C16.0324 7.99893 15.7558 7.72327 15.3746 7.43068C15.1819 7.30494 14.9701 7.18968 14.7417 7.08409C14.5125 6.9777 14.255 6.8842 13.9751 6.80521C13.6819 6.72783 13.3738 6.66819 13.049 6.62789C12.7234 6.58839 12.3679 6.56985 11.9743 6.56985C10.9826 6.56985 10.1462 6.68753 9.46512 6.92289C8.73339 7.16792 8.1794 7.50484 7.80399 7.9417C7.42857 8.3576 7.24086 8.85733 7.24086 9.44089C7.24086 10.0551 7.42276 10.5548 7.78156 10.9401C8.14286 11.3568 8.63206 11.672 9.25083 11.8855C9.83887 12.1136 10.5905 12.3135 11.5125 12.486C11.8571 12.565 12.1586 12.6319 12.4252 12.6827C12.6877 12.7327 12.9261 12.7899 13.1346 12.852C13.5274 12.9559 13.8463 13.13 14.0897 13.3775C14.3497 13.5919 14.4801 13.8675 14.4801 14.2077C14.4801 14.6776 14.2425 15.058 13.7733 15.3482C13.3297 15.6456 12.7301 15.7923 11.9751 15.7818C11.3704 15.7818 10.9327 15.7141 10.6553 15.5771C10.3106 15.4248 10.0565 15.2313 9.88953 15.0008C9.67774 14.738 9.50831 14.4463 9.37209 14.1311C9.25332 13.8321 9.09302 13.6064 8.88372 13.4541C8.68854 13.3001 8.46013 13.2235 8.19186 13.2235C7.84967 13.2235 7.56728 13.3162 7.34385 13.4984C7.12043 13.7055 7.01329 13.9481 7.01827 14.2206C7.01827 14.6953 7.19934 15.1701 7.55814 15.6456C7.91445 16.1349 8.37209 16.5169 8.9294 16.7918C9.74585 17.2012 10.7716 17.4084 12.0042 17.4164C13.01 17.4164 13.9061 17.2714 14.686 16.982C15.4518 16.6523 16.0233 16.2437 16.3962 15.7528Z" fill="#767C89"/>
</svg>
