<svg width="24" height="24" viewBox="0 0 24 24" fill="none" xmlns="http://www.w3.org/2000/svg">
<path d="M4 11.875C4 11.3227 4.44772 10.875 5 10.875H7C7.55228 10.875 8 11.3227 8 11.875V20C8 20.5523 7.55228 21 7 21H5C4.44772 21 4 20.5523 4 20V11.875Z" fill="#767C89"/>
<path d="M10 4C10 3.44772 10.4477 3 11 3H13C13.5523 3 14 3.44772 14 4V20C14 20.5523 13.5523 21 13 21H11C10.4477 21 10 20.5523 10 20V4Z" fill="#767C89"/>
<path d="M16 8.5C16 7.94772 16.4477 7.5 17 7.5H19C19.5523 7.5 20 7.94772 20 8.5V20C20 20.5523 19.5523 21 19 21H17C16.4477 21 16 20.5523 16 20V8.5Z" fill="#767C89"/>
</svg>
